<svg xmlns="http://www.w3.org/2000/svg" width="18.625" height="18.632" viewBox="0 0 18.625 18.632">
  <g id="Group_669" data-name="Group 669" transform="translate(-352.863 -118.75)">
    <path id="Path_10845" data-name="Path 10845" d="M104.054,33.559a.412.412,0,0,0-.41.414v7.457a.412.412,0,0,0,.41.414h7.4a.412.412,0,0,0,.41-.414V33.973a.412.412,0,0,0-.41-.414Zm.41.827h6.577v6.63h-6.577Z" transform="translate(249.469 85.441)" fill="#f8932d" stroke="#f8932d" stroke-width="0.5"/>
    <path id="Path_10846" data-name="Path 10846" d="M373.358,33.555a.412.412,0,0,0-.41.414v7.457a.412.412,0,0,0,.41.414h7.4a.412.412,0,0,0,.41-.414V33.969a.412.412,0,0,0-.41-.414h-7.4Zm.41.827h6.577v6.63h-6.577Z" transform="translate(-9.929 85.445)" fill="#f8932d" stroke="#f8932d" stroke-width="0.5"/>
    <path id="Path_10847" data-name="Path 10847" d="M104.054,301.25a.412.412,0,0,0-.41.414v7.457a.412.412,0,0,0,.41.414h7.4a.412.412,0,0,0,.41-.414v-7.457a.412.412,0,0,0-.41-.414Zm.41.827h6.577v6.63h-6.577Z" transform="translate(249.469 -172.403)" fill="#f8932d" stroke="#f8932d" stroke-width="0.5"/>
    <path id="Path_10848" data-name="Path 10848" d="M373.358,301.25a.412.412,0,0,0-.41.414v7.457a.412.412,0,0,0,.41.414h7.4a.412.412,0,0,0,.41-.414v-7.457a.412.412,0,0,0-.41-.414Zm.41.827h6.577v6.63h-6.577Z" transform="translate(-9.929 -172.403)" fill="#f8932d" stroke="#f8932d" stroke-width="0.5"/>
  </g>
</svg>
