<svg id="Icon_ionic-ios-eye" data-name="Icon ionic-ios-eye" xmlns="http://www.w3.org/2000/svg" width="21.741" height="13.976" viewBox="0 0 21.741 13.976">
  <path id="Path_10902" data-name="Path 10902" d="M13.111,7.875c-3.9,0-6.978,2.455-10.656,6.469a.767.767,0,0,0,0,1.034c3.149,3.479,5.925,6.473,10.661,6.473,4.678,0,8.186-3.77,10.681-6.5a.761.761,0,0,0,.024-1C21.273,11.262,17.755,7.875,13.111,7.875Zm.214,11.35a4.367,4.367,0,1,1,4.159-4.159A4.369,4.369,0,0,1,13.324,19.225Z" transform="translate(-2.252 -7.875)" fill="#363636"/>
  <path id="Path_10903" data-name="Path 10903" d="M16.606,14.325a2.28,2.28,0,0,1,.15-.82c-.049,0-.1,0-.15,0a3.105,3.105,0,1,0,3.106,3.106c0-.063,0-.126,0-.189a2.152,2.152,0,0,1-.883.189A2.253,2.253,0,0,1,16.606,14.325Z" transform="translate(-5.737 -9.618)" fill="#363636"/>
</svg>
