<svg xmlns="http://www.w3.org/2000/svg" width="14.95" height="18.687" viewBox="0 0 14.95 18.687">
  <path id="Path_10904" data-name="Path 10904" d="M90.944-518.495a1.869,1.869,0,0,1,1.869,1.869v6.54a1.869,1.869,0,0,1-1.869,1.869H90.01v7.475a.934.934,0,0,1-.934.934h-.934a.934.934,0,0,1-.934-.934v-7.475h-.934a1.869,1.869,0,0,1-1.869-1.869v-6.54a1.869,1.869,0,0,1,1.869-1.869h4.672m0,8.409v-6.54H90.01v4.2a.467.467,0,0,1-.467.467.467.467,0,0,1-.467-.467v-4.2h-.934v4.2a.467.467,0,0,1-.467.467.467.467,0,0,1-.467-.467v-4.2h-.934v6.54h4.672m7.9-8.409a.514.514,0,0,1,.514.514v17.239a.934.934,0,0,1-.934.934h-.934a.934.934,0,0,1-.934-.934v-3.737h-.934a1.869,1.869,0,0,1-1.869-1.869V-513.4a5.092,5.092,0,0,1,5.092-5.092m-3.223,12.146h1.869v-9.979a3.233,3.233,0,0,0-1.869,2.924v7.054" transform="translate(-84.404 518.495)" fill="#f8932d"/>
</svg>
