<svg xmlns="http://www.w3.org/2000/svg" width="20" height="20" viewBox="0 0 20 20">
  <g id="Group_668" data-name="Group 668" transform="translate(-956.434 -551.436)">
    <path id="Path_10841" data-name="Path 10841" d="M103.933,29.557a3.379,3.379,0,0,0-4.379,4.378,3.379,3.379,0,0,0,0,6.192,3.379,3.379,0,0,0,4.379,4.378,3.379,3.379,0,0,0,6.192,0,3.379,3.379,0,0,0,4.379-4.378,3.379,3.379,0,0,0,0-6.192,3.379,3.379,0,0,0-4.379-4.378,3.379,3.379,0,0,0-6.192,0Zm.019,1a.439.439,0,0,0,.677-.281,2.475,2.475,0,0,1,4.8,0,.439.439,0,0,0,.677.281,2.475,2.475,0,0,1,3.394,3.394.439.439,0,0,0,.281.677,2.475,2.475,0,0,1,0,4.8.439.439,0,0,0-.281.677,2.475,2.475,0,0,1-3.394,3.394.439.439,0,0,0-.677.28,2.475,2.475,0,0,1-4.8,0,.439.439,0,0,0-.677-.28,2.475,2.475,0,0,1-3.394-3.394.439.439,0,0,0-.281-.677,2.475,2.475,0,0,1,0-4.8.439.439,0,0,0,.281-.677,2.475,2.475,0,0,1,3.394-3.394Z" transform="translate(859.405 524.405)" fill="#f8932d" stroke="#f8932d" stroke-width="1"/>
    <path id="Path_10842" data-name="Path 10842" d="M248.668,177.04a1.63,1.63,0,1,0,1.63,1.63A1.631,1.631,0,0,0,248.668,177.04Zm0,.878a.752.752,0,1,1-.752.752A.752.752,0,0,1,248.668,177.918Z" transform="translate(715.521 380.522)" fill="#f8932d"/>
    <path id="Path_10843" data-name="Path 10843" d="M367.961,296.33a1.63,1.63,0,1,0,1.63,1.63A1.63,1.63,0,0,0,367.961,296.33Zm0,.878a.752.752,0,1,1-.752.752A.752.752,0,0,1,367.961,297.208Z" transform="translate(600.717 265.72)" fill="#f8932d"/>
    <path id="Path_10844" data-name="Path 10844" d="M255.086,191.408l6.322-6.322a.439.439,0,1,0-.621-.621l-6.322,6.322a.439.439,0,0,0,.621.621Z" transform="translate(708.497 373.499)" fill="#f8932d"/>
    <circle id="Ellipse_1" data-name="Ellipse 1" cx="0.915" cy="0.915" r="0.915" transform="translate(967.7 562.701)" fill="#f8932d"/>
    <circle id="Ellipse_2" data-name="Ellipse 2" cx="0.915" cy="0.915" r="0.915" transform="translate(963.353 558.355)" fill="#f8932d"/>
  </g>
</svg>
