<svg xmlns="http://www.w3.org/2000/svg" width="25.774" height="25.774" viewBox="0 0 25.774 25.774">
  <path id="Icon_metro-user-plus" data-name="Icon metro-user-plus" d="M12.236,20.453a8.875,8.875,0,0,1,5.79-8.311,7.355,7.355,0,0,0,.654-2.965c0-4,0-7.249-4.833-7.249S9.014,5.174,9.014,9.177a7.2,7.2,0,0,0,3.222,5.986v1.328c-5.465.447-9.665,3.132-9.665,6.378h10a8.839,8.839,0,0,1-.335-2.416ZM21.1,13.2a7.249,7.249,0,1,0,7.249,7.249A7.249,7.249,0,0,0,21.1,13.2Zm4.027,8.054H21.9v3.222H20.291V21.259H17.069V19.648h3.222V16.426H21.9v3.222h3.222v1.611Z" transform="translate(-2.571 -1.928)" fill="#fff"/>
</svg>
