<svg xmlns="http://www.w3.org/2000/svg" width="15.983" height="21.199" viewBox="0 0 15.983 21.199">
  <g id="Path_10757" data-name="Path 10757" transform="translate(-108.252 -18.326)" fill="none">
    <path d="M116.251,18.326a5.189,5.189,0,1,1-5.189,5.189A5.189,5.189,0,0,1,116.251,18.326Zm0,21.2a10.779,10.779,0,0,1-7.553-3.084,1.524,1.524,0,0,1-.4-1.456l.3-1.212a4.628,4.628,0,0,1,4.517-3.568h6.278a4.627,4.627,0,0,1,4.517,3.568l.288,1.249a1.526,1.526,0,0,1-.409,1.438A10.779,10.779,0,0,1,116.251,39.525Z" stroke="none"/>
    <path d="M 116.2511825561523 20.32599639892578 C 114.4927368164062 20.32599639892578 113.062141418457 21.75659561157227 113.062141418457 23.51503753662109 C 113.062141418457 25.27364730834961 114.4927368164062 26.70437622070312 116.2511825561523 26.70437622070312 C 118.0096130371094 26.70437622070312 119.4402008056641 25.27364730834961 119.4402008056641 23.51503753662109 C 119.4402008056641 21.75659561157227 118.0096130371094 20.32599639892578 116.2511825561523 20.32599639892578 M 113.1125335693359 32.20630645751953 C 111.8833694458008 32.20630645751953 110.8259963989258 33.04152679443359 110.5411987304688 34.23741912841797 L 110.5377197265625 34.25178527832031 L 110.3028030395508 35.20680999755859 C 111.9352416992188 36.7041015625 114.0363311767578 37.52517700195312 116.2511825561523 37.52517700195312 C 118.4595336914062 37.52517700195312 120.5566711425781 36.70798492431641 122.1872406005859 35.21849822998047 L 121.9598617553711 34.23210144042969 C 121.6732864379883 33.0390625 120.6173477172852 32.20630645751953 119.3901290893555 32.20630645751953 L 113.1125335693359 32.20630645751953 M 116.2511825561523 18.32599639892578 C 119.1171417236328 18.32599639892578 121.4402008056641 20.64938735961914 121.4402008056641 23.51503753662109 C 121.4402008056641 26.38099670410156 119.1171417236328 28.70437622070312 116.2511825561523 28.70437622070312 C 113.3852081298828 28.70437622070312 111.062141418457 26.38099670410156 111.062141418457 23.51503753662109 C 111.062141418457 20.64938735961914 113.3852081298828 18.32599639892578 116.2511825561523 18.32599639892578 Z M 113.1125335693359 30.20630645751953 L 119.3901290893555 30.20630645751953 C 121.5493392944336 30.20630645751953 123.4065093994141 31.67329597473145 123.9067306518555 33.77407836914062 L 124.1945724487305 35.02279663085938 C 124.3139114379883 35.54033660888672 124.1661224365234 36.09002685546875 123.7852172851562 36.46041870117188 C 121.8356170654297 38.35529708862305 119.178352355957 39.52517700195312 116.2511825561523 39.52517700195312 C 113.3147125244141 39.52517700195312 110.6493988037109 38.34755706787109 108.6982574462891 36.44154739379883 C 108.3136596679688 36.06591796875 108.1689605712891 35.507568359375 108.2975769042969 34.98569488525391 L 108.5956115722656 33.77407836914062 C 109.0958404541016 31.67360687255859 110.9533081054688 30.20630645751953 113.1125335693359 30.20630645751953 Z" stroke="none" fill="#fff"/>
  </g>
</svg>
