<svg id="Group_183" data-name="Group 183" xmlns="http://www.w3.org/2000/svg" width="122.812" height="91.291" viewBox="0 0 122.812 91.291">
  <path id="Path_80" data-name="Path 80" d="M53.059,86.816a21.681,21.681,0,0,1,1.81-3.023A6.151,6.151,0,0,1,59.58,81.71c-.4-.461-.7-.81-1-1.147A7.857,7.857,0,0,1,56.954,71.9c1.223-3.193,3.769-4.71,7.029-5.219a23.856,23.856,0,0,1,9.12.795c.227.053.456.1.754.171a7.192,7.192,0,0,0-.649-4.159A17.526,17.526,0,0,1,86.666,37.847,17.813,17.813,0,0,1,97.18,39.883c.273.143.551.281.82.418.386-1.765.63-3.5,1.154-5.154,1.535-4.836,5.294-7.346,10.058-6.858a1.8,1.8,0,0,1-.046,3.594c-4.684.264-6.584,2.151-7.18,7.025a33.248,33.248,0,0,0,.411,10.012,2.186,2.186,0,0,1-.583,2.412c-.889.677-1.674.244-2.557-.127a21.483,21.483,0,0,0-4.392-1.469c-2.832-.514-4.858,1.684-3.994,4.41.749,2.364,1.878,4.608,2.872,6.983,4.953-2.067,8.241.146,11.073,3.5,1.176,1.394,2.161,2.949,3.313,4.54l15.962-7.138a24.919,24.919,0,0,1-1.457-15.177c-.983.692-1.991,1.351-2.938,2.089-.71.554-1.354,1.152-2.349.708s-1.156-1.3-1.2-2.273A29.756,29.756,0,0,0,113.709,36a1.82,1.82,0,0,1,.837-2.708c1-.436,1.892-.02,2.485,1.21a29.612,29.612,0,0,1,2.46,8.834c.043.3.09.607.123.824,1.6-.508,3.141-.969,4.659-1.508.279-.1.452-.5.664-.775,1.471-1.879,2.837-3.852,4.439-5.612,1.43-1.571,2.445-1.379,3.655.35q3.537,5.055,7.068,10.115c.249.356.505.707.76,1.063,7.111-5.862,14.654-6.949,22.477-1.8,6.684,4.4,8.658,11.257,6.449,20.852a8.286,8.286,0,0,1,3.625,7.613c-.209,3.137-2.19,5.271-4.859,7.216.656.05,1,.079,1.335.1,3.564.239,6.034,3.153,5.986,7.064a6.457,6.457,0,0,1-6.187,6.386c-1.8.058-3.6-.007-5.4.045a2.064,2.064,0,0,0-1.282.425c-4.665,4.488-9.3,9.01-13.983,13.569a6.505,6.505,0,0,1,1.428,5.817,5.93,5.93,0,0,1-5.141,4.364c-.636.056-1.277.078-1.916.078q-28.96.007-57.919-.009a10.538,10.538,0,0,1-2.956-.321,5.887,5.887,0,0,1-3.312-8.883c.208-.337.449-.652.254-.62-2.883-3.1-5.742-6.222-8.66-9.288-1.459-1.533-2.992-3-4.569-4.415a3.114,3.114,0,0,0-1.768-.7c-1.553-.1-3.116-.019-4.675-.037a6.512,6.512,0,0,1-6.462-4.575,3.7,3.7,0,0,0-.268-.491Zm105.107,8.427h-69.5c-.439,0-.882.02-1.318-.021a1.659,1.659,0,0,1-1.654-1.7,1.745,1.745,0,0,1,1.617-1.88,11.545,11.545,0,0,1,1.318-.02h79.617c.4,0,.8.027,1.2-.012a2.853,2.853,0,0,0,2.61-1.96,3.078,3.078,0,0,0-3.114-4.281q-54.5-.007-108.993,0a3.806,3.806,0,0,0-.6.016,2.893,2.893,0,0,0-2.474,1.977A3.069,3.069,0,0,0,59.9,91.614c6.675.016,13.35,0,20.025.01,1.374,0,2.17.707,2.155,1.85-.014,1.1-.767,1.753-2.1,1.763-2.238.016-4.476,0-6.715.005h-2.2q-.061.153-.122.308c.272.224.561.43.814.675,3.5,3.4,7,6.787,10.464,10.22a2.994,2.994,0,0,0,2.316.936q29.317-.038,58.633.021a5.506,5.506,0,0,0,4.4-1.76c3.361-3.465,6.88-6.778,10.59-10.4M126.048,81.724H127.6c9.629,0,19.259-.073,28.887.034,4,.044,7.361-1.478,10.555-3.581a5.492,5.492,0,0,0,2.617-3.441c.6-2.955-1.387-5.384-4.623-5.694a24.487,24.487,0,0,0-10.756,1.8,2.053,2.053,0,0,1-2.336-.228c-.709-.67-.531-1.456-.362-2.326a19.84,19.84,0,0,0,.516-4.471,2.576,2.576,0,0,0-3.658-2.344,10.975,10.975,0,0,0-2.318,1.222,42.193,42.193,0,0,0-8.61,8.1c-1.013,1.21-1.933,1.5-2.857.912-.9-.568-.97-1.427-.421-2.878a12.725,12.725,0,0,0,.855-3.088c.239-2.234-.776-3.2-3.016-2.958a6.279,6.279,0,0,0-1.78.624,1.467,1.467,0,0,0-.878,1.923,20.248,20.248,0,0,1,.013,7.967,24.111,24.111,0,0,1-3.375,8.418M104.7,70.678a32.247,32.247,0,0,0-2.528-3.45,18.706,18.706,0,0,0-3.542-2.955,2.891,2.891,0,0,0-3.282.276,2.427,2.427,0,0,0-.632,2.847c.284,1.032.684,2.032.973,3.063a2.931,2.931,0,0,1,.148,1.488c-.422,1.461-2.127,1.7-3.235.5A69.331,69.331,0,0,0,87.759,67.3a38.128,38.128,0,0,0-6.068-4.412c-1.95-1.124-3.791-.147-4,2.1a16.707,16.707,0,0,0,.6,4.8c.194.944.124,1.79-.706,2.173a3.132,3.132,0,0,1-2.117.051,26.744,26.744,0,0,0-10.542-1.774c-3.646.266-5.869,3.38-4.58,6.446.939,2.235,5.138,5.031,7.577,5.033q9.592.007,19.185,0h1.075a2.2,2.2,0,0,0-.092-.467C87,79.147,87.2,78.552,89.33,77.6q6.6-2.958,13.207-5.908c.684-.306,1.359-.634,2.163-1.01m9.7,45.18H143.53a8.153,8.153,0,0,0,1.317-.029,2.192,2.192,0,0,0,2.07-1.838,2.343,2.343,0,0,0-1.333-2.673,4.675,4.675,0,0,0-1.743-.282q-29.37-.021-58.742-.011c-.279,0-.561-.013-.838.013a2.469,2.469,0,0,0-2.25,2.942c.206,1.223,1.146,1.875,2.777,1.876q14.806.008,29.611,0m11.314-50.544L92.032,80.389A1.986,1.986,0,0,0,94.3,81.747c1.351-.1,2.715-.023,4.073-.023,2.818,0,2.818,0,3.9-2.643.06-.148.122-.3.2-.437a1.744,1.744,0,0,1,2.282-.961,1.706,1.706,0,0,1,1.091,2.22c-.148.561-.355,1.106-.557,1.722h5.422c-.273-.632-.488-1.137-.709-1.64-.24-.547-.523-1.078-.723-1.64a1.853,1.853,0,0,1,.934-2.424,1.76,1.76,0,0,1,2.384.967c.724,1.543,1.366,3.123,2.1,4.831,1.971,0,4.123.014,6.275-.018a1.178,1.178,0,0,0,.791-.4,19.129,19.129,0,0,0,3.947-15.988M130.86,40.04c-5.333,5.115-6.59,14.73-3.145,20.676a7.626,7.626,0,0,1,6.528-1.431,5.745,5.745,0,0,1,4.531,4.594l5.61-4.615q-6.621-9.485-13.271-19.005a1.336,1.336,0,0,0-.253-.219m14.057,13.6c4.1-4.45,9.324-4.852,13.389-2.728a10.366,10.366,0,0,1,4.6,4.725,10.813,10.813,0,0,1,.034,9.54c.926.094,1.724.137,2.507.268.646.108.916-.127,1.109-.735a13.6,13.6,0,0,0,.339-7.428,13.878,13.878,0,0,0-15.156-10.741,13.336,13.336,0,0,0-8.676,4.432l1.855,2.668M78.57,58.868c-.061-.259-.12-.526-.188-.79A10.66,10.66,0,0,1,90.855,44.856c2.493.509,4.93,1.3,7.446,1.975-.019-1.755-.018-1.833-1.342-2.741-4.9-3.364-10.037-3.688-15.219-.8A13.679,13.679,0,0,0,74.92,57.153a31.529,31.529,0,0,0,.838,3.392l2.812-1.677m77.409,7.5a3.432,3.432,0,0,0,2.934-1.725A6.773,6.773,0,0,0,160,58.192a6.6,6.6,0,0,0-5.264-4.7,6.765,6.765,0,0,0-6.993,2.622,1.453,1.453,0,0,0-.244,1.136c.063.219.616.461.917.425a6.275,6.275,0,0,1,7.208,4.941,30.166,30.166,0,0,1,.357,3.746M90.949,65.046a2.08,2.08,0,0,0-.1-2.242,72.6,72.6,0,0,1-3.524-7.8,6.28,6.28,0,0,1,1.117-6.317,1.943,1.943,0,0,0,.187-.434,7.015,7.015,0,0,0-4.466,1.678,6.86,6.86,0,0,0-2.482,5.719c.095,2.228.992,3.979,3.269,4.764a3.618,3.618,0,0,1,1.011.633c1.653,1.31,3.294,2.634,4.993,4" transform="translate(-53.059 -28.228)" fill="#f8932d"/>
  <path id="Path_81" data-name="Path 81" d="M159.2,100.816c-.043,1.5-1.224,2.406-2.352,2.033-1.316-.435-2.611-.942-3.886-1.488a1.651,1.651,0,0,1-1.031-2.14,1.634,1.634,0,0,1,2.129-1.235,27.961,27.961,0,0,1,4.205,1.62c.482.234.736.939.934,1.21" transform="translate(-89.937 -54.241)" fill="#f8932d"/>
  <path id="Path_82" data-name="Path 82" d="M179.126,70.2c-.518,0-1.036.024-1.553-.005a1.721,1.721,0,0,1-1.764-1.725,1.774,1.774,0,0,1,1.639-1.868,34.847,34.847,0,0,1,3.581-.106,1.787,1.787,0,0,1,1.788,1.726,1.844,1.844,0,0,1-1.663,1.873,16.978,16.978,0,0,1-2.029.016Z" transform="translate(-98.887 -42.512)" fill="#f8932d"/>
</svg>
