<svg id="Group_179" data-name="Group 179" xmlns="http://www.w3.org/2000/svg" width="99.649" height="104.038" viewBox="0 0 99.649 104.038">
  <path id="Path_72" data-name="Path 72" d="M85.932,107.2c.177-.709.345-1.421.53-2.128a17.408,17.408,0,0,1,17.067-13.239q32.24-.015,64.481,0a17.373,17.373,0,0,1,17.343,15.11,11.967,11.967,0,0,1,.083,3.472c-.345,2.206-1.525,3.417-4.109,4.608a5.982,5.982,0,0,1-1.686,6.534,7.976,7.976,0,0,1,1.028,9.18c.341.113.668.212.989.328,2.8,1.023,4.266,3.665,3.853,6.955a13.617,13.617,0,0,1-10.53,11.817,11.359,11.359,0,0,1-2.681.342q-36.52.028-73.039.006a13.523,13.523,0,0,1-13.148-11.424,1.924,1.924,0,0,0-.182-.432v-2.919c.058-.073.146-.139.17-.222a5.736,5.736,0,0,1,4.391-4.308,1.032,1.032,0,0,0,.289-.2c-1.538-3.465-1.352-5.171,1-9.15a6.069,6.069,0,0,1-1.613-6.556,6.349,6.349,0,0,1-4.238-4.469Zm27.71-11.48a6,6,0,0,1,.948,5.039A5.835,5.835,0,0,1,104.7,103.3c-2.006-1.936-3.959-3.926-5.909-5.918a.937.937,0,0,0-1.32-.24,13.315,13.315,0,0,0-7.517,11.031c-.237,2.426.37,3.113,2.811,3.113H130.6q24.215,0,48.429,0c1.987,0,2.769-.872,2.59-2.842A13.522,13.522,0,0,0,176.071,98.4a12.148,12.148,0,0,0-5.4-2.341,5.863,5.863,0,0,1-9.167,7.229c-2.373-2.3-4.669-4.683-7.04-6.987a2.13,2.13,0,0,0-1.327-.554c-3.37-.046-6.742-.026-10.113-.023-.274,0-.547.026-.852.041,1.009,2.3,1.226,3.652.835,5.01a5.846,5.846,0,0,1-9.9,2.52c-2.374-2.3-4.676-4.675-7.033-6.994a1.755,1.755,0,0,0-1.038-.554c-3.726-.04-7.453-.025-11.388-.025m18.207,39.739c-2.034,2.04-3.972,3.992-5.92,5.935-1.409,1.408-2.31,1.408-3.717.009-2.09-2.083-4.164-4.182-6.277-6.241a1.853,1.853,0,0,0-1.155-.507q-11.236-.044-22.471-.018c-1.824,0-2.667.991-2.431,2.8a9.828,9.828,0,0,0,10.067,8.872q35.8.014,71.6-.021a12.517,12.517,0,0,0,3.617-.592,8.472,8.472,0,0,0,4.461-3.276H159.8a6.513,6.513,0,0,1-.971-.026,1.852,1.852,0,0,1-1.621-1.47,1.721,1.721,0,0,1,.883-2.067,3.328,3.328,0,0,1,1.481-.313q10.409-.029,20.817-.013h1.033c.046-.3.073-.492.1-.684.388-2.292-.386-3.209-2.712-3.209q-14.835,0-29.669-.014a1.932,1.932,0,0,0-1.521.634c-1.926,1.971-3.888,3.906-5.838,5.854-1.8,1.8-2.5,1.8-4.27.033-1.855-1.856-3.706-3.717-5.665-5.682m3.943-20.283q-19.6,0-39.2.006a6.821,6.821,0,0,0-1.439.15,1.85,1.85,0,0,0-.05,3.57,4.951,4.951,0,0,0,1.242.161q39.391.012,78.783,0a4.463,4.463,0,0,0,1.335-.184,1.817,1.817,0,0,0,1.137-2.341c-.317-.955-1.059-1.36-2.517-1.36H135.792M124,137.344c4.762-4.766,9.589-9.6,14.29-14.3H109.695l14.3,14.3m28.122-6.649c.421.03.569.049.718.049,6.93,0,13.86.013,20.79-.018a4.954,4.954,0,0,0,1.965-.442,3.754,3.754,0,0,0,2.045-4.2,3.871,3.871,0,0,0-4.011-3.119q-6.557-.037-13.115.011a1.611,1.611,0,0,0-1,.425c-1.2,1.139-2.342,2.328-3.516,3.489-1.232,1.219-2.475,2.426-3.88,3.8m2.122-7.734c-3.116,0-6.088-.027-9.057.027a2.273,2.273,0,0,0-1.4.6c-2.553,2.487-5.057,5.025-7.581,7.542-.5.5-1.016.98-1.394,1.343l4.974,4.963,14.462-14.475m-42.686,7.785c-2.632-2.628-5.056-5.056-7.5-7.464a1.2,1.2,0,0,0-.756-.306c-1.877-.024-3.755-.05-5.631,0a3.882,3.882,0,1,0,.165,7.76c3.269.041,6.538.01,9.807.01h3.913m-8.829-35.022c.391.417.583.633.787.837,1.349,1.348,2.674,2.719,4.06,4.028a1.9,1.9,0,1,0,2.71-2.65c-.6-.677-1.258-1.3-1.91-1.926a.965.965,0,0,0-.58-.276c-1.6-.022-3.208-.012-5.067-.012m28.655,0c1.633,1.71,3.19,3.427,4.85,5.039a1.746,1.746,0,0,0,2.467-.138,1.8,1.8,0,0,0,.142-2.475c-.656-.8-1.423-1.5-2.156-2.235a.68.68,0,0,0-.427-.184c-1.637-.012-3.274-.008-4.877-.008m28.179,0c1.733,1.751,3.275,3.367,4.885,4.91a1.842,1.842,0,0,0,2.633.021,1.885,1.885,0,0,0,.023-2.708c-.6-.68-1.256-1.31-1.916-1.93a1.112,1.112,0,0,0-.677-.281c-1.578-.024-3.157-.012-4.949-.012" transform="translate(-85.932 -46.164)" fill="#f8932d"/>
  <path id="Path_73" data-name="Path 73" d="M157.785,42.346a7.63,7.63,0,0,1-2.276,5.372c-3.07,3.311-3.07,3.891.023,7.234,3.273,3.538,2.946,8.8-.85,12.332a13.828,13.828,0,0,1-3.049,2.064,1.927,1.927,0,0,1-2.611-.922,2.187,2.187,0,0,1,.456-2.881c.469-.4,1.011-.72,1.494-1.109,2.67-2.153,2.89-4.483.568-6.974-1.582-1.7-2.814-3.489-2.863-5.938a7.853,7.853,0,0,1,2.059-5.452c.347-.4.733-.772,1.083-1.174,1.847-2.119,1.737-4.336-.347-6.25-.552-.507-1.2-.9-1.8-1.37a2.261,2.261,0,0,1-.642-3.063,2.211,2.211,0,0,1,3.016-.8c3.451,1.971,5.634,4.8,5.733,8.936" transform="translate(-99.88 -33.11)" fill="#f8932d"/>
  <path id="Path_74" data-name="Path 74" d="M134.421,68.447a10.358,10.358,0,0,1-5.692,9.213,2.222,2.222,0,0,1-3.13-.775,2.438,2.438,0,0,1,.795-3.161,14.786,14.786,0,0,0,2.6-2.429c1.225-1.656,1-3.263-.345-4.822a18.642,18.642,0,0,1-2.459-3.122c-1.786-3.322-.942-7.4,2.051-10.311a14.027,14.027,0,0,1,2.65-1.988,2.226,2.226,0,0,1,3.136.705,2.26,2.26,0,0,1-.722,3.147,14.606,14.606,0,0,0-2.6,2.428c-1.29,1.761-1.121,3.309.359,4.9,1.4,1.5,2.781,3,3.174,5.119.081.434.149.869.187,1.094" transform="translate(-94.675 -37.019)" fill="#f8932d"/>
  <path id="Path_75" data-name="Path 75" d="M181.161,69.321c-.2,3.663-2.255,6.295-5.385,8.194a2.277,2.277,0,0,1-3.372-.63c-.68-1.143-.351-2.266.889-3.22a14.45,14.45,0,0,0,2.114-1.809,3.7,3.7,0,0,0-.025-5.451c-1.4-1.557-2.83-3.071-3.2-5.249-.764-4.49,2.336-8.72,5.938-10.308a2.076,2.076,0,0,1,2.74.975,2.236,2.236,0,0,1-.535,2.867c-.574.488-1.218.892-1.783,1.389-2.236,1.96-2.413,4.242-.415,6.428,1.552,1.7,2.975,3.423,3.035,5.873.006.265,0,.53,0,.94" transform="translate(-105.079 -37.009)" fill="#f8932d"/>
</svg>
