<svg id="Group_181" data-name="Group 181" xmlns="http://www.w3.org/2000/svg" width="110.927" height="110.911" viewBox="0 0 110.927 110.911">
  <path id="Path_76" data-name="Path 76" d="M170.645,26.19c2.428.655,4.161,2.291,5.845,4.04q3.225,3.351,6.578,6.576c1.749,1.684,3.383,3.419,4.038,5.845v3.032a12.157,12.157,0,0,1-3.727,5.553c-1.63,1.532-3.172,3.157-4.757,4.739-1.424,1.422-2.087,1.5-3.967.36-.616.677-1.218,1.452-1.935,2.1a4.363,4.363,0,0,0-1.545,3.213c-.026.791-.023,1.585.014,2.376.175,3.745.464,7.494-.442,11.2A25.147,25.147,0,0,1,163.6,87.1q-19.936,19.885-39.828,39.812c-2.271,2.272-4.5,4.588-6.833,6.8a12.2,12.2,0,0,1-20.3-5.961,1.2,1.2,0,0,0-1-1.047,11.953,11.953,0,0,1-9.053-9.066,1.109,1.109,0,0,0-.955-.962,11.761,11.761,0,0,1-5.95-3.34,12.188,12.188,0,0,1,.283-17.384Q90.042,85.8,100.181,75.727c.97-.969,1.927-1.953,2.914-2.906a2.242,2.242,0,0,1,3.193-.169,2.177,2.177,0,0,1-.119,3.259c-1.153,1.195-2.342,2.355-3.509,3.534-.219.222-.413.468-.647.735,2.077,2.075,4.041,4.147,6.13,6.083a5.753,5.753,0,0,1,1.866,3.84,15.551,15.551,0,0,0,13.16,13.184,5.9,5.9,0,0,1,3.924,1.927c1.932,2.082,4,4.041,5.939,5.984l20.94-20.938c-.158-.168-.394-.434-.643-.684-2.014-2.019-4.075-3.993-6.019-6.078a4.177,4.177,0,0,1-1.066-2.251,15.457,15.457,0,0,0-12.69-13.876,8.684,8.684,0,0,1-5.393-2.926c-1.634-1.817-3.436-3.485-5.329-5.385-.882.956-1.653,1.862-2.5,2.691a2.134,2.134,0,0,1-3.253.1,2.19,2.19,0,0,1,.173-3.184c3.439-3.452,6.832-6.954,10.365-10.308a21.8,21.8,0,0,1,14.843-6.377c2.376-.053,4.758.09,7.137.164,1.519.047,3.105.213,4.369-.791a34.366,34.366,0,0,0,2.9-2.881c-1.043-1.714-.961-2.382.455-3.8,1.479-1.482,2.992-2.932,4.435-4.448,1.675-1.762,3.421-3.394,5.86-4.035ZM93.377,88.718c-3.464,3.478-6.972,6.912-10.4,10.426a7.819,7.819,0,0,0,2.066,12.713c.414.2.86.331,1.225.469.66-1.422,1.229-2.809,1.941-4.119a9.149,9.149,0,0,1,1.549-1.936,2.167,2.167,0,1,1,3.167,2.957,7.946,7.946,0,0,0-2.259,5.991,7.431,7.431,0,0,0,4.436,6.665,7.563,7.563,0,0,0,7.981-.718c.355-.245.666-.551,1-.823a2.148,2.148,0,0,1,3.095.134,2.109,2.109,0,0,1-.172,3.092,11.973,11.973,0,0,1-5.482,3.111c-.168.044-.334.1-.591.174a7.652,7.652,0,0,0,5.616,5.617,7.021,7.021,0,0,0,7.05-1.681c5.48-5.387,10.843-10.9,16.326-16.429-.137-.158-.325-.4-.541-.621-1.757-1.765-3.494-3.552-5.3-5.265a3.214,3.214,0,0,0-1.671-.817,20.309,20.309,0,0,1-16.775-16.708,3.574,3.574,0,0,0-.925-1.843c-1.882-1.985-3.847-3.892-5.882-5.93-1.868,1.9-3.653,3.73-5.457,5.542M159.84,41.405c-.649.765-1.31,1.563-1.992,2.343a8.274,8.274,0,0,1-6.663,2.781c-2.452-.026-4.9-.162-7.356-.215a17.948,17.948,0,0,0-13.124,5.169c-1.545,1.46-2.947,3.07-4.525,4.727.243.249.6.627.972,1,1.658,1.66,3.3,3.336,4.993,4.961a2.433,2.433,0,0,0,1.292.623,20.324,20.324,0,0,1,17.056,17.057,1.8,1.8,0,0,0,.322.987c2.086,2.139,4.207,4.244,6.366,6.407,4.177-3.986,8.495-7.8,9.4-13.81a61.632,61.632,0,0,0,.275-7.755c.041-1.763-.035-3.532.079-5.289a6.959,6.959,0,0,1,2.305-4.638c.832-.8,1.681-1.573,2.56-2.393L159.84,41.405m16.711,10.148c1.781-1.714,3.748-3.45,5.521-5.368a3.181,3.181,0,0,0-.236-4.349q-5.152-5.245-10.4-10.393a3.29,3.29,0,0,0-4.614-.009c-1.8,1.71-3.506,3.517-5.179,5.207l14.91,14.913" transform="translate(-76.18 -26.19)" fill="#f8932d"/>
  <path id="Path_77" data-name="Path 77" d="M140.421,86.292a10.364,10.364,0,0,0-1.859,1.454,1.794,1.794,0,0,0,.076,2.22,5.357,5.357,0,0,0,.639.732c4.488,4.492,8.962,9,13.492,13.448a2.22,2.22,0,0,0,3.838-.339,1.777,1.777,0,0,0-.272-2.2,6.284,6.284,0,0,0-.52-.549q-6.734-6.737-13.482-13.46a13.743,13.743,0,0,0-1.912-1.306" transform="translate(-91.605 -41.135)" fill="#f8932d"/>
  <path id="Path_78" data-name="Path 78" d="M128.061,98.469a9.523,9.523,0,0,0,1.083,1.86q6.929,7,13.923,13.938a2.185,2.185,0,1,0,3.1-3.055q-6.951-6.98-13.923-13.939a2.012,2.012,0,0,0-2.534-.564,8.514,8.514,0,0,0-1.652,1.759" transform="translate(-89.081 -43.664)" fill="#f8932d"/>
  <path id="Path_79" data-name="Path 79" d="M122.928,78.071a2.168,2.168,0,0,0,.025,4.335,2.251,2.251,0,0,0,2.218-2.19,2.2,2.2,0,0,0-2.243-2.145" transform="translate(-87.274 -39.091)" fill="#f8932d"/>
</svg>
