<svg id="Icon_feather-shopping-cart" data-name="Icon feather-shopping-cart" xmlns="http://www.w3.org/2000/svg" width="81.969" height="78.38" viewBox="0 0 81.969 78.38">
  <path id="Path_58" data-name="Path 58" d="M19.179,33.59A3.59,3.59,0,1,1,15.59,30,3.59,3.59,0,0,1,19.179,33.59Z" transform="translate(14.627 39.701)" fill="none" stroke="#5a5a5a" stroke-linecap="round" stroke-linejoin="round" stroke-width="3"/>
  <path id="Path_59" data-name="Path 59" d="M35.679,33.59A3.59,3.59,0,1,1,32.09,30,3.59,3.59,0,0,1,35.679,33.59Z" transform="translate(37.611 39.701)" fill="none" stroke="#5a5a5a" stroke-linecap="round" stroke-linejoin="round" stroke-width="3"/>
  <path id="Path_60" data-name="Path 60" d="M1.5,1.5H15.858l9.62,48.064a7.179,7.179,0,0,0,7.179,5.779h34.89a7.179,7.179,0,0,0,7.179-5.779l5.743-30.116H19.448" transform="translate(0 0)" fill="none" stroke="#5a5a5a" stroke-linecap="round" stroke-linejoin="round" stroke-width="3"/>
</svg>
