<svg xmlns="http://www.w3.org/2000/svg" width="194.314" height="189.123" viewBox="0 0 194.314 189.123">
  <g id="Group_101" data-name="Group 101" transform="translate(-77.999 51.896) rotate(-20)" opacity="0.2">
    <path id="Path_2" data-name="Path 2" d="M226.962,96.248c-.357,1.6-.619,3.232-1.084,4.8-3.127,10.535-9.933,17.59-20.287,21.21-.943.329-1.412.636-1.575,1.758-1.831,12.6-3.761,25.192-5.64,37.789-.475,3.183-1.343,6.169-3.857,8.391a9.346,9.346,0,0,1-6.447,2.381c-24.534-.023-49.069-.079-73.6.04a10.225,10.225,0,0,1-10.336-8.768c-1.542-9.363-2.855-18.762-4.269-28.146-.588-3.9-1.156-7.807-1.834-11.693-.073-.419-.77-.908-1.267-1.048-12.053-3.4-19.9-11.069-22.88-23.24C69.761,82.9,81.185,65.6,98.273,62.659c2.5-.429,3.675-1.353,4.526-3.692a43.589,43.589,0,0,1,7.838-13.048c1.413-1.683,3.142-1.979,4.574-.815,1.452,1.178,1.549,2.9.127,4.635a45.657,45.657,0,0,0-8.54,15.868,3.311,3.311,0,0,1-3.446,2.517,24.141,24.141,0,0,0-19.084,9.79,24.7,24.7,0,0,0,15.948,39.431A24.058,24.058,0,0,0,116.9,114c2.383-1.453,3.172-1.4,5.374.335a45.251,45.251,0,0,0,55.52.01c2.181-1.717,3.037-1.787,5.242-.426a24.762,24.762,0,1,0,15.207-45.669c-.549-.041-1.1-.123-1.646-.133a3.271,3.271,0,0,1-3.348-2.634,43.912,43.912,0,0,0-13.034-20.324c-9.613-8.468-20.829-12.528-33.654-11.411a77.432,77.432,0,0,0-11.542,2.369c-2.318.568-3.915.116-4.578-1.74-.626-1.75.3-3.234,2.511-4.025a51.25,51.25,0,0,1,65.1,30.384c.35.941.735,1.466,1.824,1.577,12.813,1.313,24.024,11.63,26.476,24.3.177.915.406,1.82.612,2.73Zm-99.938,70.3c-.269-4.189-.506-8.179-.785-12.165-.656-9.376-1.417-18.746-1.94-28.129-.128-2.29-.465-4.077-2.789-4.985a4.092,4.092,0,0,1-1.223-.859c-.679-.634-1.259-.536-2.112-.185a68.477,68.477,0,0,1-7.716,2.76,50.9,50.9,0,0,1-6.143.948c.063.613.1,1.2.185,1.781q1.57,10.439,3.154,20.876c.806,5.33,1.586,10.664,2.423,15.989.363,2.305,1.8,3.91,3.677,3.944,4.343.079,8.688.025,13.269.025m48.049.01h1.489q5.178,0,10.357,0c3.289,0,4.738-1.251,5.211-4.478q.628-4.3,1.277-8.59,2.193-14.432,4.387-28.864a3.112,3.112,0,0,0-.094-.817c-6.664-.139-10.9-1.05-15.319-3.275a2.848,2.848,0,0,0-4.334,2.452c-.345,4.536-.647,9.076-.955,13.615-.669,9.875-1.332,19.751-2.019,29.957M171.8,125.319a6.775,6.775,0,0,0-.932.227,48.976,48.976,0,0,1-15.562,4.1c-1.111.1-1.2.707-1.2,1.615q.033,16.97.019,33.938c0,.426.075.852.115,1.28h14.709c.952-13.724,1.9-27.369,2.853-41.156m-23.9,4.618a54.967,54.967,0,0,1-17.541-3.852c.947,13.684,1.87,27.027,2.795,40.394H147.9Z" fill="#fef3f3"/>
    <path id="Path_3" data-name="Path 3" d="M180.222,66.472a8.6,8.6,0,0,1-8.514,8.653,8.653,8.653,0,0,1,.156-17.3,8.6,8.6,0,0,1,8.358,8.649m-10.726,0a2.31,2.31,0,1,0,4.607,0,2.348,2.348,0,0,0-2.387-2.487,2.312,2.312,0,0,0-2.22,2.49" fill="#fef3f3"/>
    <path id="Path_4" data-name="Path 4" d="M171.974,95.6a8.413,8.413,0,1,1-8.342-8.635,8.573,8.573,0,0,1,8.342,8.635m-6.039.08a2.475,2.475,0,0,0-2.231-2.554,2.489,2.489,0,0,0-.283,4.964,2.409,2.409,0,0,0,2.514-2.41" fill="#fef3f3"/>
    <path id="Path_5" data-name="Path 5" d="M129.955,85.418a8.509,8.509,0,0,1-8.41,8.7,8.644,8.644,0,0,1,.021-17.283,8.5,8.5,0,0,1,8.389,8.58m-6.047.081a2.347,2.347,0,1,0-4.686-.041,2.415,2.415,0,0,0,2.394,2.535,2.469,2.469,0,0,0,2.292-2.494" fill="#fef3f3"/>
    <path id="Path_6" data-name="Path 6" d="M150.04,57.862a8.413,8.413,0,1,1-8.454-8.681,8.538,8.538,0,0,1,8.454,8.681m-8.483-2.513a2.419,2.419,0,0,0-2.3,2.477,2.377,2.377,0,1,0,4.747,0,2.412,2.412,0,0,0-2.449-2.476" fill="#fef3f3"/>
    <path id="Path_7" data-name="Path 7" d="M124.869,39.723a3.061,3.061,0,0,1-3.075,3.013,3.109,3.109,0,0,1-2.985-3.113,3.073,3.073,0,0,1,3.1-2.992,2.985,2.985,0,0,1,2.959,3.092" fill="#fef3f3"/>
  </g>
</svg>
