<svg xmlns="http://www.w3.org/2000/svg" width="130.115" height="127.58" viewBox="0 0 130.115 127.58">
  <g id="noun-tick-mark-2920206" transform="translate(-105.001 -39.781)">
    <path id="Path_70" data-name="Path 70" d="M209.393,167.36H128.185A23.213,23.213,0,0,1,105,144.168v-81.2a23.21,23.21,0,0,1,23.184-23.184h63.328a6.947,6.947,0,0,1,0,13.895H128.185a9.3,9.3,0,0,0-9.294,9.289v81.209a9.3,9.3,0,0,0,9.294,9.3h81.209a9.309,9.309,0,0,0,9.3-9.3V81.616a6.945,6.945,0,1,1,13.89,0v62.552a23.219,23.219,0,0,1-23.193,23.193Z" fill="#fff"/>
    <path id="Path_71" data-name="Path 71" d="M233.107,90.853l19.252,45.4c3.225,7.649,8.536,7.654,12.245.228A355.764,355.764,0,0,1,327.69,47.9c1.961-1.961,1.529-2.6-.943-1.366C284.678,67.409,259.6,109.282,259.6,109.282L250,85.741a5.623,5.623,0,0,0-6.687-3.187l-7.379,2.23a4.4,4.4,0,0,0-2.831,6.069Z" transform="translate(-93.804 -4.497)" fill="#fff"/>
  </g>
</svg>
