<svg xmlns="http://www.w3.org/2000/svg" width="197.539" height="124.313" viewBox="0 0 197.539 124.313">
  <path id="Path_57" data-name="Path 57" d="M248.464,77.766c-1.247,3.527-2.493,7.053-3.723,10.537a44.928,44.928,0,0,1,2.853,6.815,9.066,9.066,0,0,1-1.907,7.76,1.92,1.92,0,0,0-.172,2.584,6.9,6.9,0,0,1,.392,6.4,3.273,3.273,0,0,0,.157,2.424c3.668,6.616,2.19,17.227-3.341,21.2-2.113,1.516-4.8,2.2-7.474,3.378a19.918,19.918,0,0,1-1.3,11.942c-3.567,8.03-9.842,12.374-18.245,13.628a44.609,44.609,0,0,1-6.539.329q-60.282.029-120.561.011c-7.128,0-13.563-1.9-18.72-7.237a22.432,22.432,0,0,1-5.692-10.751,3.013,3.013,0,0,1,1.959-3.582,2.864,2.864,0,0,1,3.6,1.814c.922,2.145,1.573,4.476,2.828,6.394,2.931,4.479,7.32,6.62,12.5,7.144a32.474,32.474,0,0,0,3.276.1q61.439.008,122.877.027c5.738.006,10.821-1.466,14.683-6a14.566,14.566,0,0,0,3.333-13.167c-.229-1.045-.632-1.489-1.661-1.389-.51.05-1.028.008-1.542.008q-80.149,0-160.3.032c-4.493,0-8.354-1.12-11.3-4.747-2.651-3.261-3.153-7.084-2.738-11.118a2.578,2.578,0,0,1,2.766-2.458,2.767,2.767,0,0,1,2.914,2.579,20.172,20.172,0,0,1,.088,2.949,6.8,6.8,0,0,0,6.43,6.785c.449.027.9.015,1.351.015q84.487,0,168.977,0c3.984,0,6.782-1.574,7.3-4.975.447-2.956,0-6.071-.223-9.1-.066-.893-.685-1.628-1.942-1.146-4.609,1.766-9.325,1.585-14.026.465-3-.713-5.156-.034-7.164,2.615-5.56,7.333-15.121,8.974-22.232,3.572-2.94-2.233-3.909-2.006-6.712.979-5.4,5.755-12.782,6.971-19.465,3.133a28.746,28.746,0,0,1-3.083-2.349c-2.094-1.616-3.211-1.441-5.319.151-2.239,1.691-4.519,3.569-7.081,4.527-5.284,1.976-10.218.62-14.584-2.936-.4-.327-.761-.706-1.138-1.061-2.646-2.482-3.515-2.343-6.5-.2a22.388,22.388,0,0,1-6.745,3.532c-5.344,1.5-10.122-.108-14.222-3.853-.525-.48-.973-1.049-1.469-1.563-2.145-2.217-3.392-2.4-5.875-.552a15.39,15.39,0,0,1-10.225,3.3,15.6,15.6,0,0,1-12.174-6.592c-2.026-2.716-4.225-3.449-7.32-2.7-5.236,1.261-10.439,1.248-15.462-1.042-2.148-.979-4.064-2.227-5.057-4.578a7.262,7.262,0,0,1,.443-6.593,2.037,2.037,0,0,0,.136-1.691c-3.787-5.293-3.121-10.246.942-15,.038-.045.043-.121-.322-.049-1.131-3.3-2.638-6.523-3.318-9.918-1.665-8.31,1.251-15.262,7.143-20.911A60.114,60.114,0,0,1,93.358,41.1a64.6,64.6,0,0,1,29.793,3.041,6.523,6.523,0,0,0,4.039.008,60.42,60.42,0,0,1,27.688-3.268c5.675.679,11.208,2.591,16.819,3.883a5,5,0,0,0,2.738.025,63.4,63.4,0,0,1,29.126-4c15.008,1.452,28.139,7.289,38.779,18.411a21.387,21.387,0,0,1,5.784,11.754,4.691,4.691,0,0,0,.339.907ZM116.7,48.528a7.785,7.785,0,0,0-.915-.328,58.767,58.767,0,0,0-21.028-1.232,54.469,54.469,0,0,0-32.147,15c-5.291,5.06-7.159,11.177-4.784,18.383C60.382,88.1,68.189,93.522,77.213,93.529q72.507.054,145.015.005A21.192,21.192,0,0,0,233.41,90.4c9.426-5.735,13.048-18.833,3.9-27.915-9.832-9.759-21.813-14.81-35.388-15.81a55.468,55.468,0,0,0-31.27,6.519c-6.4,3.5-12.692,7.272-15.9,14.531a2.733,2.733,0,0,1-3.852,1.511,2.876,2.876,0,0,1-1.361-3.994c1.6-2.8,3.174-5.772,5.4-8,3.069-3.076,6.734-5.531,10.537-8.566-4.269-.705-8.272-1.684-12.32-1.976a56.08,56.08,0,0,0-30.954,6.2c-6.937,3.69-13.452,7.973-17.332,15.346a2.7,2.7,0,0,1-3.923,1.259A2.808,2.808,0,0,1,99.79,65.45a42.671,42.671,0,0,1,5.975-8.1c3.337-3.214,7.2-5.858,10.936-8.821m65.624,51.366c-.664,1.1-1.193,2.152-1.883,3.085-3.5,4.744-8.53,7.07-13.887,8.639a58.458,58.458,0,0,1-33.632.011c-6.582-1.949-12.6-4.9-15.578-11.261a56.39,56.39,0,0,1-5.318,5.916c-4.451,3.785-9.872,5.518-15.467,6.528-4.011.725-8.095,1.025-12.108,1.511,3.7,6.461,10.736,8.732,16.443,3.867a9.269,9.269,0,0,1,3.594-1.752c4.207-1.108,7.229.959,9.968,3.981,4.031,4.449,9.311,4.722,13.9.9,5.318-4.423,9.2-4.305,14.282.432,4.5,4.2,9.606,4.213,14.1.039,5.144-4.775,8.934-4.911,14.281-.51,4.737,3.9,10.012,3.677,14.02-.987,4.018-4.679,9.468-5.647,14.427-1.507,4.6,3.841,11.941,2.3,15.559-4.807-.894,0-1.726.032-2.555-.005a51.989,51.989,0,0,1-19.458-4.215c-4.558-2.074-8.508-4.874-10.69-9.867M59.262,92.855c-2.495,3.048-2.347,5.4.395,7.952a24.2,24.2,0,0,0,10.391,5.305A55.529,55.529,0,0,0,93.9,107.278c5.276-.851,10.413-2.29,14.737-5.76a21.517,21.517,0,0,0,1.866-1.991c-10.782,0-21.055-.1-31.325.035-7.4.1-14.089-1.7-19.913-6.707m180.882-.015C234.214,98,227.3,99.7,219.717,99.566c-9.5-.163-19.012-.039-28.519-.039H188.81c3.045,3.539,6.579,5.052,10.264,6.208a54.168,54.168,0,0,0,25.508,1.443c5.468-.917,10.783-2.444,15.093-6.322,2.8-2.519,2.96-4.837.47-8.016m-116.3,6.789a15.529,15.529,0,0,0,6.68,4.837,46.089,46.089,0,0,0,18.413,3.554c6.84.082,13.589-.766,19.951-3.569a14.863,14.863,0,0,0,6.622-4.821Zm116.4,8.534-9.119,3.934a14.708,14.708,0,0,0,8.208-1.647c.881-.468,1.633-1.075.911-2.286M58.762,108c.306.884.335,1.738.735,2a13.062,13.062,0,0,0,8.662,2.051L58.762,108" transform="translate(-50.925 -40.465)" fill="#fff"/>
</svg>
