<svg id="Group_187" data-name="Group 187" xmlns="http://www.w3.org/2000/svg" width="82.129" height="99.998" viewBox="0 0 82.129 99.998">
  <path id="Path_89" data-name="Path 89" d="M118.263,102.927c2.57-4.191,6.3-6.117,11.035-5.375a9.824,9.824,0,0,1,7.789,5.757,10.422,10.422,0,0,1-1.236,11.4,2.65,2.65,0,0,0-.384,1.485c-.049,3.036-.056,6.073-.059,9.11a1.77,1.77,0,0,0,2.36,1.883,1.865,1.865,0,0,0,1.066-1.227,23.04,23.04,0,0,0,.172-3.8c-.02-1.174-.013-2.349,1.225-2.887,1.208-.525,2.146.294,3.06.938,2.594,1.826,5.177,3.666,7.9,5.6.038-2.563.093-4.953.079-7.342,0-.261-.359-.635-.64-.762a10.645,10.645,0,0,1-4.415-3.629,10.17,10.17,0,0,1-1.2-10.158,10.738,10.738,0,0,1,6.432-6.085q.205-24.485.411-49.1l-7.875.506c2.01,4.293,1.795,8.352-1.128,11.9a9.969,9.969,0,0,1-10.981,3.487c-5.081-1.433-7.553-5.056-7.938-10.373A81,81,0,0,0,87.966,81.9c1.092.735,2.084,1.459,3.13,2.091a2.892,2.892,0,0,1,1.569,2.742c-.043,1.432-.031,2.865-.07,4.3a2.182,2.182,0,0,1-2,2.245,2.225,2.225,0,0,1-1.95-2.229,16.034,16.034,0,0,1,0-2.751,1.609,1.609,0,0,0-.858-1.725c-3.739-2.59-7.435-5.245-11.229-7.751A6.183,6.183,0,0,1,75.1,69.911,98.027,98.027,0,0,1,91.4,53.234,131.008,131.008,0,0,1,103.916,44.7a82.331,82.331,0,0,1,9.216-4.846,66.533,66.533,0,0,1,7.922-2.966,120.918,120.918,0,0,1,12.213-3.45c4.467-.9,9.043-1.268,13.576-1.821a18.713,18.713,0,0,1,3.444-.123c3.876.249,5.676,3.046,5.65,6.469q-.058,7.623-.142,15.244-.126,12.593-.252,25.186c-.056,6.274-.091,12.549-.137,18.823q-.1,14.034-.2,28.068c-.01,1.27-.036,2.542-.054,3.812A2.185,2.185,0,0,1,154,131.213a2.076,2.076,0,0,1-2.371-.329c-2.76-1.914-5.521-3.827-8.435-5.845-.128.524-.245.9-.31,1.289a5.626,5.626,0,0,1-3.652,4.607A5.474,5.474,0,0,1,132.7,129.1a6.886,6.886,0,0,1-1.221-4.7c.059-2.293.029-4.589-.008-6.883a1.253,1.253,0,0,0-.438-.888c-3.595-2.527-7.214-5.018-10.823-7.525-1.163-.808-2.314-1.635-3.728-2.636-.006,1.326-.009,2.38-.015,3.434a5.726,5.726,0,1,1-11.437,0c.017-3.5.1-7,.105-10.5a1.548,1.548,0,0,0-.48-1.112c-1.428-1.064-2.916-2.047-4.556-3.178-.03,1.782-.068,3.41-.082,5.038-.051,5.8-.066,11.593-.152,17.389a5.736,5.736,0,0,1-4.14,5.394,5.675,5.675,0,0,1-6.305-2.428c-1.077-1.6-.985-3.328-.959-5.093.04-2.763.042-5.528.077-8.292.011-.881.311-1.77,1.188-1.971a2.711,2.711,0,0,1,2.1.385,2.889,2.889,0,0,1,.609,1.978c.038,3.057-.037,6.115-.039,9.172,0,.954-.06,2.02,1.13,2.389a1.883,1.883,0,0,0,2.4-2.018q.064-5.754.1-11.508c.031-4.6.009-9.21.121-13.812a3.04,3.04,0,0,1,1.006-2.058,1.964,1.964,0,0,1,2.369.222c2.653,1.844,5.371,3.6,8.009,5.462a3.357,3.357,0,0,1,1.542,3.215c-.218,3.817-.155,7.65-.177,11.477a2.013,2.013,0,0,0,1.959,1.927,2.121,2.121,0,0,0,1.651-1.981q.045-3.275.029-6.551c-.009-1.607.375-2.381,1.667-2.585a3.3,3.3,0,0,1,1.869.51,21.123,21.123,0,0,1,2.192,1.547M77.68,73.12a1.817,1.817,0,0,0,.8,2.079q2.8,2.033,5.66,3.97a1,1,0,0,0,.964-.115c.743-.821,1.4-1.72,2.084-2.6a77.977,77.977,0,0,1,16.988-15.981q3.747-2.623,7.7-4.947a52.131,52.131,0,0,1,5.615-2.726c2.782-1.213,5.557-2.473,8.425-3.451a82.873,82.873,0,0,1,9.424-2.642c3.07-.655,6.212-1,9.335-1.367,2.133-.255,4.288-.319,6.432-.483.486-.038.794-.11.771-.834-.07-2.177.049-4.359.052-6.539a2.049,2.049,0,0,0-2.314-2.084c-4.008.4-8.048.605-12.012,1.269a110.148,110.148,0,0,0-11.684,2.74,79.643,79.643,0,0,0-8.521,3.063,84.216,84.216,0,0,0-8.926,4.074c-3.44,1.905-6.739,4.08-10,6.289a73.783,73.783,0,0,0-6.612,5.083,92.97,92.97,0,0,0-13.48,14.2c-.248.325-.471.667-.706,1m50.575-20.526a6.614,6.614,0,0,0,11.716,5.722c2.019-2.762,1.794-5.86-.654-8.488l-11.062,2.765m3.991,60.034c2.18-1.6,2.4-5.084,1.553-7.069a6.725,6.725,0,0,0-6.475-4.222c-2.764.081-5.2,2.158-5.645,3.945l10.568,7.346m19.159-10.448a6.551,6.551,0,0,0-3.21,6.37,5.922,5.922,0,0,0,3.124,4.98c.029-3.864.057-7.536.086-11.35" transform="translate(-73.808 -31.46)" fill="#f8932d"/>
  <path id="Path_90" data-name="Path 90" d="M172.676,103.441a10.631,10.631,0,1,1-8-12.76,10.519,10.519,0,0,1,8,12.76m-11.69,4.143a6.639,6.639,0,0,0,7.875-5.206,6.542,6.542,0,0,0-5.012-7.762,6.641,6.641,0,1,0-2.862,12.968" transform="translate(-97.372 -49.301)" fill="#f8932d"/>
  <path id="Path_91" data-name="Path 91" d="M131.119,97.769a10.623,10.623,0,0,1-20.589-5.226,10.623,10.623,0,1,1,20.589,5.226m-12.1,3.667a6.686,6.686,0,1,0-4.491-8.466,6.754,6.754,0,0,0,4.491,8.466" transform="translate(-84.822 -47.473)" fill="#f8932d"/>
  <path id="Path_92" data-name="Path 92" d="M96.439,129.543a2.05,2.05,0,0,1-1.362-2.444,2.113,2.113,0,0,1,2.442-1.428,2.363,2.363,0,0,1,1.411,2.5,2.492,2.492,0,0,1-2.491,1.371" transform="translate(-80.225 -59.96)" fill="#f8932d"/>
</svg>
