<svg xmlns="http://www.w3.org/2000/svg" width="70.189" height="70.189" viewBox="0 0 70.189 70.189">
  <path id="Icon_feather-message-circle" data-name="Icon feather-message-circle" d="M71.689,36.228A31.28,31.28,0,0,1,68.33,50.413,31.728,31.728,0,0,1,39.961,67.957,31.28,31.28,0,0,1,25.777,64.6L4.5,71.689l7.092-21.277A31.28,31.28,0,0,1,8.233,36.228,31.728,31.728,0,0,1,25.777,7.86,31.28,31.28,0,0,1,39.961,4.5h1.866A31.654,31.654,0,0,1,71.689,34.362Z" transform="translate(-3 -3)" fill="none" stroke="#5a5a5a" stroke-linecap="round" stroke-linejoin="round" stroke-width="3"/>
</svg>
