<svg xmlns="http://www.w3.org/2000/svg" width="33.322" height="190.354" viewBox="0 0 33.322 190.354">
  <g id="Group_150" data-name="Group 150" transform="translate(-178 -1161.5)">
    <line id="Line_3" data-name="Line 3" y2="79" transform="translate(194.5 1161.5)" fill="none" stroke="#f19b28" stroke-width="5"/>
    <line id="Line_4" data-name="Line 4" y2="79" transform="translate(194.5 1272.854)" fill="none" stroke="#f19b28" stroke-width="5"/>
    <path id="Icon_awesome-arrow-down" data-name="Icon awesome-arrow-down" d="M31.488,16.786l1.694,1.694a1.824,1.824,0,0,1,0,2.587L18.356,35.9a1.824,1.824,0,0,1-2.587,0L.935,21.067a1.824,1.824,0,0,1,0-2.587l1.694-1.694a1.833,1.833,0,0,1,2.617.031l8.76,9.195V4.081A1.827,1.827,0,0,1,15.837,2.25h2.442a1.827,1.827,0,0,1,1.831,1.831v21.93l8.76-9.195a1.82,1.82,0,0,1,2.617-.031Z" transform="translate(177.603 1237.916)"/>
  </g>
</svg>
