<svg xmlns="http://www.w3.org/2000/svg" width="150.884" height="169.005" viewBox="0 0 150.884 169.005">
  <g id="Group_86" data-name="Group 86" transform="matrix(0.966, -0.259, 0.259, 0.966, -79.436, 19.199)" opacity="0.2">
    <path id="Path_13" data-name="Path 13" d="M137.561,133.951c3.686-6.011,9.032-8.772,15.825-7.708a14.089,14.089,0,0,1,11.17,8.256c2.641,5.8,2.125,11.239-1.773,16.351a3.8,3.8,0,0,0-.551,2.129c-.07,4.354-.08,8.709-.085,13.064,0,2.025,1.52,3.321,3.384,2.7a2.674,2.674,0,0,0,1.529-1.759,33.042,33.042,0,0,0,.247-5.452c-.028-1.683-.019-3.368,1.757-4.14,1.732-.753,3.077.421,4.389,1.345,3.72,2.618,7.424,5.257,11.33,8.027.054-3.676.134-7.1.113-10.529,0-.375-.515-.91-.918-1.093a15.267,15.267,0,0,1-6.331-5.2,14.585,14.585,0,0,1-1.717-14.567,15.4,15.4,0,0,1,9.224-8.726q.294-35.114.59-70.416l-11.293.725c2.883,6.157,2.574,11.977-1.618,17.061-4.04,4.9-9.515,6.759-15.748,5-7.287-2.055-10.832-7.251-11.384-14.876A116.159,116.159,0,0,0,94.112,103.8c1.566,1.054,2.988,2.092,4.489,3a4.147,4.147,0,0,1,2.25,3.933c-.061,2.053-.045,4.108-.1,6.162a3.129,3.129,0,0,1-2.868,3.22,3.192,3.192,0,0,1-2.8-3.2,23,23,0,0,1,0-3.945,2.307,2.307,0,0,0-1.23-2.474c-5.362-3.715-10.662-7.522-16.1-11.116a8.868,8.868,0,0,1-2.1-12.781A140.581,140.581,0,0,1,99.036,62.686a187.876,187.876,0,0,1,17.95-12.242,118.07,118.07,0,0,1,13.216-6.95,95.415,95.415,0,0,1,11.361-4.253,173.408,173.408,0,0,1,17.515-4.947c6.406-1.291,12.968-1.818,19.47-2.611a26.837,26.837,0,0,1,4.939-.177c5.558.357,8.14,4.368,8.1,9.277q-.083,10.932-.2,21.862-.18,18.06-.362,36.119c-.081,9-.131,18-.2,26.994q-.144,20.125-.291,40.252c-.014,1.822-.051,3.645-.077,5.467a3.134,3.134,0,0,1-1.651,3.038,2.977,2.977,0,0,1-3.4-.472c-3.958-2.745-7.918-5.488-12.1-8.383-.183.752-.352,1.294-.444,1.849a8.069,8.069,0,0,1-5.238,6.607,7.85,7.85,0,0,1-9.367-2.627c-1.551-1.925-1.813-4.3-1.751-6.741.084-3.289.042-6.581-.011-9.871a1.8,1.8,0,0,0-.628-1.273c-5.155-3.624-10.345-7.2-15.521-10.792-1.668-1.159-3.318-2.345-5.347-3.781-.008,1.9-.013,3.413-.021,4.924a8.211,8.211,0,1,1-16.4,0c.025-5.018.14-10.036.151-15.054a2.221,2.221,0,0,0-.689-1.594c-2.048-1.526-4.182-2.936-6.534-4.557-.043,2.555-.1,4.89-.118,7.225-.073,8.313-.1,16.626-.218,24.938a8.226,8.226,0,0,1-5.937,7.736,8.139,8.139,0,0,1-9.042-3.482c-1.545-2.3-1.412-4.773-1.376-7.3.057-3.963.06-7.927.111-11.891.016-1.263.446-2.538,1.7-2.827a3.887,3.887,0,0,1,3.012.552,4.143,4.143,0,0,1,.874,2.836c.054,4.384-.053,8.77-.056,13.154,0,1.368-.086,2.9,1.62,3.426,1.833.567,3.421-.792,3.444-2.894q.091-8.252.14-16.5c.044-6.6.013-13.208.174-19.808a4.359,4.359,0,0,1,1.443-2.951c.956-.761,2.259-.473,3.4.318,3.805,2.645,7.7,5.16,11.486,7.833a4.814,4.814,0,0,1,2.212,4.611c-.312,5.474-.223,10.971-.254,16.459a2.888,2.888,0,0,0,2.81,2.763A3.042,3.042,0,0,0,129.3,144.1q.064-4.7.042-9.4c-.013-2.3.538-3.415,2.391-3.707a4.733,4.733,0,0,1,2.681.731,30.293,30.293,0,0,1,3.143,2.219m-58.2-42.746a2.606,2.606,0,0,0,1.151,2.981q4.009,2.916,8.117,5.693a1.44,1.44,0,0,0,1.383-.165c1.066-1.178,2.011-2.466,2.989-3.723a111.828,111.828,0,0,1,24.362-22.918q5.373-3.762,11.042-7.094a74.76,74.76,0,0,1,8.053-3.909c3.99-1.74,7.97-3.546,12.082-4.949a118.848,118.848,0,0,1,13.515-3.789c4.4-.94,8.909-1.427,13.388-1.96,3.059-.365,6.149-.458,9.224-.693.7-.054,1.138-.158,1.1-1.2-.1-3.122.07-6.251.074-9.378a2.938,2.938,0,0,0-3.319-2.988c-5.748.569-11.542.868-17.226,1.82a157.965,157.965,0,0,0-16.756,3.93,114.216,114.216,0,0,0-12.22,4.392,120.775,120.775,0,0,0-12.8,5.842c-4.933,2.732-9.664,5.851-14.336,9.019a105.813,105.813,0,0,0-9.482,7.29A133.329,133.329,0,0,0,80.374,89.769c-.355.466-.676.957-1.013,1.436m72.53-29.437a9.485,9.485,0,0,0,16.8,8.206c2.9-3.961,2.573-8.4-.938-12.172l-15.864,3.966m5.724,86.1c3.127-2.3,3.437-7.291,2.227-10.137a9.644,9.644,0,0,0-9.286-6.055c-3.964.116-7.456,3.1-8.1,5.657l15.155,10.535m27.476-14.983a9.4,9.4,0,0,0-4.6,9.135,8.493,8.493,0,0,0,4.48,7.142c.042-5.542.082-10.807.124-16.277" fill="#fef3f3"/>
    <path id="Path_14" data-name="Path 14" d="M181.8,109.1A15.246,15.246,0,1,1,170.33,90.8,15.086,15.086,0,0,1,181.8,109.1m-16.765,5.942a9.521,9.521,0,0,0,11.293-7.466,9.382,9.382,0,0,0-7.188-11.132c-5.722-1.276-10.353,1.821-11.532,7.3a9.227,9.227,0,0,0,7.427,11.294" fill="#fef3f3"/>
    <path id="Path_15" data-name="Path 15" d="M140.2,103.59c-2.485,8.728-10.757,12.92-18.533,10.746-9.026-2.524-12.918-10.649-10.994-18.241A15.234,15.234,0,1,1,140.2,103.59m-17.349,5.259c5.137,1.224,9.764-1.031,11.622-6.049A9.394,9.394,0,0,0,128.4,90.492a9.509,9.509,0,0,0-11.988,6.216,9.686,9.686,0,0,0,6.441,12.141" fill="#fef3f3"/>
    <path id="Path_16" data-name="Path 16" d="M97.06,131.249a2.94,2.94,0,0,1-1.953-3.5,3.03,3.03,0,0,1,3.5-2.048,3.388,3.388,0,0,1,2.023,3.587c-.257,1.113-2.38,2.281-3.572,1.966" fill="#fef3f3"/>
  </g>
</svg>
