<svg xmlns="http://www.w3.org/2000/svg" width="142.543" height="142.733" viewBox="0 0 142.543 142.733">
  <g id="Group_10" data-name="Group 10" transform="translate(-78.867 -28.185)">
    <path id="Path_24" data-name="Path 24" d="M119.939,125.7c1.67-2.777,1.713-4.872,1.7-8.015-.066-18.033-.019-36.067-.067-54.1a6.483,6.483,0,0,0-.815-2.981c-2.572-4.658-5.276-9.243-7.851-13.9a6.431,6.431,0,0,1-.772-2.876c-.084-4.124-.005-8.251-.052-12.377a3.425,3.425,0,0,1,1.627-3.27h1.67c1.129.6,2.246,1.217,3.4,1.766a1.333,1.333,0,0,0,1.017.014c1.147-.551,2.255-1.18,3.378-1.78h1.67c1.135.591,2.259,1.208,3.415,1.755a1.338,1.338,0,0,0,1.016.037c1.142-.553,2.244-1.187,3.361-1.792h1.67c1.14.586,2.27,1.2,3.43,1.742a1.349,1.349,0,0,0,1.015.062c1.138-.555,2.235-1.195,3.347-1.8h1.948c1.061.586,2.112,1.19,3.189,1.745a1.167,1.167,0,0,0,.886.119c1.167-.581,2.3-1.235,3.439-1.864h1.948c3.1,2.238,4.642,2.238,7.514,0h1.948c2.119,1.56,4.276,2.631,6.728.61a7.217,7.217,0,0,1,1.064-.61h1.67c1.12.6,2.226,1.234,3.37,1.785a1.334,1.334,0,0,0,1.017-.024c1.154-.548,2.273-1.168,3.4-1.761h1.67c1.126.6,2.239,1.223,3.388,1.773a1.339,1.339,0,0,0,1.018,0c1.148-.55,2.261-1.176,3.386-1.774h1.67c1.133.593,2.253,1.212,3.407,1.759a1.332,1.332,0,0,0,1.016.028c1.145-.552,2.25-1.184,3.37-1.787h1.669c1.138.589,2.265,1.2,3.423,1.749a1.34,1.34,0,0,0,1.015.05c1.141-.554,2.24-1.192,3.355-1.8h1.948c1.057.588,2.1,1.2,3.182,1.746a1.3,1.3,0,0,0,1.008.054c1.13-.555,2.219-1.193,3.324-1.8h3.339V45.713a6.078,6.078,0,0,0-.479.636c-2.785,4.86-5.587,9.71-8.317,14.6a5.3,5.3,0,0,0-.647,2.466c-.037,17.017.129,34.036-.116,51.049a31.943,31.943,0,0,0,3.385,15.717c2.273,4.376,4.132,8.968,6.174,13.464v15.859c-1.282,1.833-2.207,2.213-4.051,1.055-2.112-1.325-3.993-1.527-6.058,0-1.92,1.418-3.468-.021-5.231-.855a2.236,2.236,0,0,1-.41-2.425,1.95,1.95,0,0,1,2.23-1.219,20.736,20.736,0,0,0,3.365-.876c2.692-1.25,2.669-1.3,5.35-.522v-7.638h-9.337a2.488,2.488,0,0,1-1.542-2.591,2.589,2.589,0,0,1,1.542-2.331h7.979c-.248-.64-.4-1.1-.6-1.552-2.305-5.2-4.637-10.383-6.906-15.6a6.533,6.533,0,0,1-.559-2.528q-.045-30.11.007-60.219a5.972,5.972,0,0,1,.732-2.743c2-3.65,4.112-7.242,6.178-10.859.221-.386.406-.793.673-1.317H118.827c.257.506.44.908.657,1.289,2.085,3.66,4.213,7.3,6.235,10.991a5.992,5.992,0,0,1,.732,2.744c.04,19.98.093,39.961-.058,59.94-.017,2.187-1.264,4.364-2,6.747-.29.693-2.107.573-2.7.325-.2-.083-2.088-.765-2.191-2.235a2.96,2.96,0,0,1,.441-1.383m96.67-91.347c-2.006,1.691-3.684.769-5.264-.237a2.827,2.827,0,0,0-3.536-.006,4.638,4.638,0,0,1-5.994.023c-.11-.081-.264-.1-.373-.184a2.129,2.129,0,0,0-2.778,0c-2.182,1.546-4.4,1.759-6.619.053a2.313,2.313,0,0,0-3.036.018,4.88,4.88,0,0,1-6.363.018,2.513,2.513,0,0,0-3.292.063,4.7,4.7,0,0,1-6.118-.017,2.619,2.619,0,0,0-3.41.023,4.621,4.621,0,0,1-5.99.029,2.7,2.7,0,0,0-3.528-.021,4.606,4.606,0,0,1-5.987.012,2.692,2.692,0,0,0-3.522-.006,4.6,4.6,0,0,1-5.986,0,2.691,2.691,0,0,0-3.523.006,4.622,4.622,0,0,1-5.991-.01c-.072-.053-.179-.062-.25-.117a2.286,2.286,0,0,0-3.025.016,4.958,4.958,0,0,1-6.49-.029,2.5,2.5,0,0,0-3.047.02c-1.68.958-3.383,2.149-5.4.436V42.3h99.522Z" fill="#fff"/>
    <path id="Path_25" data-name="Path 25" d="M191.791,170.632c-4.3.98-9.028-.655-13.47-3.419a9.946,9.946,0,0,0-5.541-1.344c-21.892.049-43.784.024-65.677.056a5.093,5.093,0,0,0-2.626.606,26.2,26.2,0,0,1-17.551,4.13c-1.741-.192-3.522-.016-5.284-.033-2.309-.022-3.516-1.786-2.285-3.738,1.474-2.337,1.683-4.413,0-6.674a2.518,2.518,0,0,1,.11-3.123,4.727,4.727,0,0,0-.007-6.157,3,3,0,0,1,.211-3.748,4.083,4.083,0,0,0,.017-5.293,3.325,3.325,0,0,1,0-4.247,4.039,4.039,0,0,0-.023-5.291,4.55,4.55,0,0,1-.492-.993,2.367,2.367,0,0,1,2.1-3.49c4.775-.091,9.554-.07,14.33.01a4.739,4.739,0,0,1,2.306.879c4.956,3.228,10.34,3.984,16.22,3.909,20.081-.255,40.166-.09,60.249-.123a5.093,5.093,0,0,0,2.629-.619,26.458,26.458,0,0,1,17.708-4.127c1.605.173,3.245,0,4.868.034,2.4.05,3.628,1.812,2.391,3.805-1.459,2.349-1.66,4.437.014,6.692a2.415,2.415,0,0,1-.059,2.993c-1.521,2.11-1.645,4.158-.038,6.293a2.769,2.769,0,0,1-.1,3.5,4.451,4.451,0,0,0,0,5.79,3.072,3.072,0,0,1-.005,3.758c-.1.153-.145.346-.253.493a3.521,3.521,0,0,0-.024,4.661,5.073,5.073,0,0,1,.5.99c1.021,2.178.017,3.808-2.367,3.822-2.272.013-4.545,0-7.85,0M98,164.335c1.433-.719,2.63-1.42,3.9-1.929a11.72,11.72,0,0,1,4.026-1.216q34.773-.111,69.548-.025a7.271,7.271,0,0,1,2.78.652c1.68.726,3.292,1.61,4.989,2.457V134.259c-1.343.669-2.571,1.2-3.719,1.872a10.559,10.559,0,0,1-5.559,1.369c-22.58-.051-45.16-.022-67.74-.064a8.572,8.572,0,0,1-3.174-.756c-1.679-.7-3.279-1.589-5.054-2.469Zm-4.918-31.5H85.2c1.393,1.768.829,3.317-.148,4.757a3.355,3.355,0,0,0-.012,4.3,4.1,4.1,0,0,1,.014,5.246c-.133.186-.178.434-.314.616a2.305,2.305,0,0,0,.012,3.031,5.008,5.008,0,0,1-.012,6.5c-.081.111-.122.251-.2.363a1.987,1.987,0,0,0,.008,2.3c.965,1.843,2.484,3.635.653,5.851h7.877Zm103.161,33c-1.717-2.03-.742-3.717.241-5.3a2.848,2.848,0,0,0-.023-3.55,4.588,4.588,0,0,1-.046-5.878,2.8,2.8,0,0,0,.031-3.661,4.574,4.574,0,0,1-.015-5.875c.106-.149.146-.346.257-.49a2.227,2.227,0,0,0,.006-2.68c-.9-1.718-2.335-3.424-.562-5.587h-7.786v33.019Z" fill="#fff"/>
    <path id="Path_26" data-name="Path 26" d="M163.835,118.422c-5.519,0-11.037-.022-16.556.025a5.915,5.915,0,0,0-2.377.559c-2.426,1.138-4.8,2.382-7.2,3.575-2.542,1.264-4.2.26-4.206-2.549q-.009-13.562,0-27.122c.009-12.591,9.309-21.982,21.9-22.043,10.248-.05,20.5.008,30.746-.041a7.268,7.268,0,0,0,2.9-.691c2.439-1.117,4.8-2.4,7.22-3.564,2.082-1,3.764,0,3.767,2.311.012,9.829.111,19.66-.08,29.485-.184,9.45-7.861,18.14-17.231,19.62a65.075,65.075,0,0,1-8.867.42c-3.338.064-6.678.015-10.017.015M138.5,116.759c1.466-.718,2.906-1.325,4.244-2.106a8.462,8.462,0,0,1,4.5-1.064c10.29.045,20.58.026,30.871.022,9.065,0,16.313-5.938,16.947-14.984.6-8.609.13-17.293.13-26.131-1.434.709-2.784,1.295-4.053,2.023a9.871,9.871,0,0,1-5.165,1.24q-15.852-.087-31.705-.005c-8.084.051-15.516,6.965-15.783,15.01-.28,8.424-.115,16.864-.138,25.3a4.176,4.176,0,0,0,.149.7" fill="#fff"/>
    <path id="Path_27" data-name="Path 27" d="M140.613,156.43q-13.775,0-27.549,0c-2.509,0-3.26-.732-3.265-3.186-.005-2.782-.013-5.564,0-8.346.012-1.865.829-2.7,2.683-2.808.324-.019.649-.007.974-.007q27.2,0,54.4,0c3.108,0,3.718.621,3.718,3.766v6.677c0,3.374-.541,3.9-3.975,3.9H140.613M114.6,151.62h50.553a1.987,1.987,0,0,0,.823-.026c.3-.154.74-.448.755-.7.077-1.277.036-2.562.036-3.849H114.6Z" fill="#fff"/>
  </g>
</svg>
