<svg xmlns="http://www.w3.org/2000/svg" width="130.584" height="155.181" viewBox="0 0 130.584 155.181">
  <g id="Group_88" data-name="Group 88" transform="translate(-101.984 -4.69) rotate(-7)" opacity="0.2">
    <path id="Path_32" data-name="Path 32" d="M194.067,161.549c0,1.377,0,2.576,0,3.776-.014,4.279-2.607,7.46-6.353,7.8-4.162.375-7.142-2.005-7.995-6.383-.042-.217-.072-.437-.1-.584h-4.567a7.189,7.189,0,0,1-2.406,5.2,6.84,6.84,0,0,1-7.633,1.215,6.735,6.735,0,0,1-4.266-6.293c-.072-1.519-.012-3.044-.012-4.641H141.794c0,1.42.007,2.759,0,4.1a7.123,7.123,0,0,1-6.444,7.4,7.036,7.036,0,0,1-7.8-6.251c-.037-.226-.087-.449-.156-.8l-1.475.132a6.727,6.727,0,0,1-6.882-3.484,2.156,2.156,0,0,0-2.175-1.2,50.346,50.346,0,0,1-8.85-.449,11.446,11.446,0,0,1-9.031-11.366Q98.946,112.7,99,75.694a15.99,15.99,0,0,1,6.326-12.754c.462-.376.957-.711,1.543-1.143-.323-.264-.581-.493-.857-.7a16.487,16.487,0,0,1-7.028-13.8,42.511,42.511,0,0,1,.283-6.787A11.606,11.606,0,0,1,110.584,30.9q45.417-.022,90.835,0a11.638,11.638,0,0,1,11.513,10.839,40.86,40.86,0,0,1-.6,10.21c-.834,4.182-3.52,7.371-7.251,9.77.569.439,1.036.79,1.493,1.154A15.941,15.941,0,0,1,213,75.712q.1,36.937.022,73.875c-.007,6.84-5.207,11.829-12.335,11.956-2.166.038-4.334.006-6.618.006M155.883,137.76q22.122,0,44.245,0c5.245,0,8.089-2.827,8.091-8.07q.011-26.37-.014-52.74a15.95,15.95,0,0,0-.388-3.715A11.659,11.659,0,0,0,196.995,64.2a3.655,3.655,0,0,1-2.338-.914A3.062,3.062,0,0,1,194.2,60.9c.292-1.237,1.436-1.559,2.633-1.6a11.013,11.013,0,0,0,8.485-4.112c3.828-4.675,3.639-10.106,2.092-15.424-.887-3.048-3.777-4.128-6.911-4.128H111.457c-.232,0-.465,0-.7.009-3.334.194-6.36,2.375-6.695,5.435a31.809,31.809,0,0,0,.1,8.986c.975,5.409,5.506,8.944,11.035,9.239,1.739.093,2.822,1.021,2.838,2.433.016,1.4-1.05,2.342-2.8,2.489a14.91,14.91,0,0,0-1.931.193c-5.951,1.307-9.524,5.953-9.529,12.436q-.018,26.439,0,52.879c0,5.161,2.865,8.025,7.994,8.026q22.053,0,44.106,0m-51.972,2.461a6.936,6.936,0,0,0,7.049,7q45.054.02,90.108-.03a8.311,8.311,0,0,0,3.443-.879,6.042,6.042,0,0,0,3.432-5.976c-2.545,1.828-5.4,2.2-8.434,2.193q-43.247-.06-86.492,0c-3.2,0-6.278-.213-9.106-2.308m61.6,11.868c0,4.8-.033,9.437.019,14.071a2.379,2.379,0,0,0,2.345,2.455,2.421,2.421,0,0,0,2.327-2.594c.024-1.9.006-3.8.007-5.7,0-2.316.676-3.425,2.187-3.593,1.371-.151,2.173.682,2.722,2.857a2.31,2.31,0,0,0,4.549-.137c.349-1.923,1.278-2.87,2.68-2.718,1.434.154,2.195,1.232,2.21,3.176.014,1.994-.016,3.988.012,5.982.023,1.693.931,2.733,2.31,2.728s2.284-1.06,2.29-2.742q.021-6.4,0-12.8a9.107,9.107,0,0,0-.109-.982Zm-42.678-.015c0,2.357-.017,4.574.006,6.792.016,1.564.805,2.485,2.125,2.567,1.347.084,2.158-.648,2.475-2.235.337-1.684,1.308-2.6,2.631-2.475,1.4.13,2.235,1.221,2.246,2.99.013,2.083-.009,4.166.009,6.249a2.39,2.39,0,0,0,2.244,2.648,2.3,2.3,0,0,0,2.373-2.386c.045-4.626-.01-9.253-.034-13.88,0-.074-.1-.147-.189-.27Zm37.855.041H141.879v4.5h18.807Zm-42.8-.032c-4.8-.364-9.708.926-13.965-2.357.065,3.307,2,6.12,5,6.621a75.061,75.061,0,0,0,8.965.475Zm76.234,4.622c2.216,0,4.292,0,6.367,0a13.849,13.849,0,0,0,1.526-.033c3.456-.393,6.346-3.661,5.94-6.9-4.184,3.329-9.156,1.846-13.833,2.346Z" fill="#fef3f3"/>
    <path id="Path_33" data-name="Path 33" d="M116.087,123.552c-2.25,0-3.426-1.882-2.6-3.446a5.673,5.673,0,0,1,1.053-1.276q36.183-36.2,72.379-72.393a6.887,6.887,0,0,1,1.037-.92,2.212,2.212,0,0,1,2.925.263,2.34,2.34,0,0,1,.36,3.037,7.2,7.2,0,0,1-.925,1.031q-36.189,36.2-72.394,72.381a11.666,11.666,0,0,1-1.831,1.323" fill="#fef3f3"/>
    <path id="Path_34" data-name="Path 34" d="M132.769,128.282c-2.294.032-3.48-1.823-2.658-3.406a5.969,5.969,0,0,1,1.131-1.386q25.369-25.39,50.75-50.768c1.661-1.661,3.026-1.918,4.175-.789s.916,2.53-.73,4.177q-25.377,25.381-50.768,50.751a13.718,13.718,0,0,1-1.9,1.421" fill="#fef3f3"/>
    <path id="Path_35" data-name="Path 35" d="M170.588,47.447a13.66,13.66,0,0,1-1.367,2.08c-2.722,2.787-5.494,5.524-8.248,8.278l-42.69,42.7c-.295.295-.58.6-.89.88a2.373,2.373,0,0,1-3.471.039,2.318,2.318,0,0,1,.031-3.361c.213-.245.451-.467.68-.7Q140.061,71.931,165.49,46.5c.36-.359.7-.9,1.129-.994a4.255,4.255,0,0,1,2.461-.016c.625.286.961,1.2,1.508,1.955" fill="#fef3f3"/>
    <path id="Path_36" data-name="Path 36" d="M199.145,83.085a20.5,20.5,0,0,1-1.744,2.4q-11.032,11.1-22.114,22.143-9.588,9.591-19.178,19.178a8.548,8.548,0,0,1-1.131,1.025,2.222,2.222,0,0,1-3.032-.261,2.375,2.375,0,0,1-.279-3.051,8,8,0,0,1,.94-1.02q20.7-20.706,41.4-41.412c.92-.92,1.9-1.855,3.249-1.068a9.909,9.909,0,0,1,1.891,2.068" fill="#fef3f3"/>
    <path id="Path_37" data-name="Path 37" d="M115.632,81.125c-.8-.612-1.736-.986-2.035-1.647a4.435,4.435,0,0,1,.1-2.447c.069-.348.522-.626.816-.921q14.889-14.9,29.791-29.783a4.64,4.64,0,0,1,1.549-1.115,2.148,2.148,0,0,1,2.578.844,2.215,2.215,0,0,1,.086,2.716,5.818,5.818,0,0,1-.824.934q-14.889,14.9-29.8,29.779a18.888,18.888,0,0,1-2.27,1.64" fill="#fef3f3"/>
    <path id="Path_38" data-name="Path 38" d="M175.008,128.623c-.783-.621-1.682-1.016-2.013-1.689a4.144,4.144,0,0,1,.044-2.344c.064-.349.5-.64.8-.933q10.168-10.179,20.356-20.339c.474-.472,1.141-1.1,1.688-1.067a4.054,4.054,0,0,1,2.386.981,1.943,1.943,0,0,1,.086,2.563,6.711,6.711,0,0,1-.917,1.037q-10.069,10.082-20.16,20.142a19.122,19.122,0,0,1-2.268,1.649" fill="#fef3f3"/>
    <path id="Path_39" data-name="Path 39" d="M120.142,54.877c-.615-.5-1.567-.9-1.816-1.57a2.978,2.978,0,0,1,.256-2.52,61.53,61.53,0,0,1,5.059-5.131,2.246,2.246,0,0,1,3.144.085,2.2,2.2,0,0,1,.207,3.23c-1.664,1.795-3.443,3.485-5.22,5.17a6.446,6.446,0,0,1-1.63.736" fill="#fef3f3"/>
  </g>
</svg>
