<svg xmlns="http://www.w3.org/2000/svg" width="231.407" height="199.112" viewBox="0 0 231.407 199.112">
  <g id="Group_89" data-name="Group 89" transform="matrix(0.951, -0.309, 0.309, 0.951, -59.185, 50.111)" opacity="0.2">
    <path id="Path_17" data-name="Path 17" d="M53.059,121.721a34.6,34.6,0,0,1,2.888-4.824c1.821-2.186,4.375-3.18,7.518-3.324-.642-.735-1.111-1.293-1.6-1.831a12.539,12.539,0,0,1-2.589-13.83c1.951-5.1,6.015-7.516,11.217-8.328,4.958-.775,9.762.164,14.554,1.268.363.084.727.165,1.2.273a11.476,11.476,0,0,0-1.035-6.637,27.967,27.967,0,0,1,21.474-40.91,28.426,28.426,0,0,1,16.779,3.248c.436.229.879.449,1.308.667.616-2.816,1-5.591,1.841-8.225,2.449-7.717,8.448-11.723,16.051-10.944a2.868,2.868,0,0,1-.073,5.735c-7.474.422-10.506,3.433-11.458,11.211a53.056,53.056,0,0,0,.656,15.977c.254,1.4.416,2.823-.931,3.849-1.419,1.08-2.671.39-4.08-.2a34.282,34.282,0,0,0-7.008-2.344c-4.519-.821-7.753,2.687-6.374,7.038,1.2,3.772,3,7.353,4.583,11.143,7.9-3.3,13.151.233,17.67,5.593,1.876,2.225,3.449,4.706,5.287,7.245l25.472-11.391a39.765,39.765,0,0,1-2.325-24.22c-1.568,1.1-3.178,2.156-4.689,3.333-1.133.884-2.161,1.838-3.749,1.13s-1.844-2.071-1.91-3.628c-.266-6.272-1.234-12.4-3.9-18.168-.916-1.984-.376-3.572,1.336-4.321,1.59-.695,3.02-.032,3.965,1.931a47.255,47.255,0,0,1,3.925,14.1c.068.484.144.968.2,1.315,2.547-.81,5.013-1.547,7.435-2.407.445-.157.721-.8,1.06-1.237,2.347-3,4.528-6.147,7.083-8.955,2.282-2.507,3.9-2.2,5.832.558q5.645,8.067,11.279,16.142c.4.568.806,1.129,1.212,1.7,11.348-9.354,23.384-11.089,35.869-2.878C239.7,63.58,242.851,74.528,239.326,89.84a13.222,13.222,0,0,1,5.785,12.148c-.333,5.006-3.495,8.411-7.754,11.515,1.047.08,1.588.126,2.13.162,5.688.382,9.629,5.032,9.552,11.272a10.3,10.3,0,0,1-9.873,10.191c-2.868.093-5.742-.011-8.61.072a3.293,3.293,0,0,0-2.046.679c-7.445,7.162-14.837,14.378-22.314,21.653,2.077,2.791,3.227,5.776,2.279,9.283a9.463,9.463,0,0,1-8.2,6.964c-1.015.089-2.038.124-3.057.124q-46.214.011-92.427-.015a16.816,16.816,0,0,1-4.717-.513A9.4,9.4,0,0,1,94.784,159.2c.332-.537.717-1.041.405-.99-4.6-4.946-9.163-9.929-13.819-14.822-2.329-2.447-4.775-4.792-7.291-7.045a4.97,4.97,0,0,0-2.821-1.121c-2.478-.157-4.973-.03-7.46-.059a10.392,10.392,0,0,1-10.312-7.3,5.909,5.909,0,0,0-.427-.783Zm167.728,13.448H109.874c-.7,0-1.407.032-2.1-.034a2.647,2.647,0,0,1-2.639-2.713,2.784,2.784,0,0,1,2.58-3,18.42,18.42,0,0,1,2.1-.032H236.866c.638,0,1.28.043,1.912-.019a4.552,4.552,0,0,0,4.165-3.127c1.312-3.634-.995-6.831-4.97-6.832q-86.964-.011-173.929,0a6.073,6.073,0,0,0-.955.025,4.616,4.616,0,0,0-3.948,3.155,4.9,4.9,0,0,0,4.832,6.793c10.652.025,21.3,0,31.955.016,2.193,0,3.463,1.128,3.439,2.952-.022,1.755-1.224,2.8-3.351,2.814-3.571.026-7.143.007-10.715.008H81.8q-.1.244-.194.491c.434.357.9.686,1.3,1.077,5.578,5.424,11.175,10.83,16.7,16.309a4.778,4.778,0,0,0,3.7,1.494q46.784-.06,93.566.033a8.786,8.786,0,0,0,7.023-2.808c5.363-5.53,10.979-10.816,16.9-16.6M169.534,113.6H172c15.366,0,30.733-.116,46.1.055,6.386.071,11.746-2.359,16.843-5.715a8.764,8.764,0,0,0,4.176-5.491c.965-4.716-2.214-8.591-7.377-9.086-5.984-.574-11.625.873-17.165,2.878-1.355.49-2.6.7-3.728-.364s-.847-2.324-.577-3.712a31.66,31.66,0,0,0,.823-7.134c-.117-3.143-2.907-4.817-5.838-3.74a17.513,17.513,0,0,0-3.7,1.95,67.331,67.331,0,0,0-13.739,12.93c-1.617,1.931-3.084,2.39-4.559,1.455-1.429-.906-1.548-2.277-.672-4.592a20.307,20.307,0,0,0,1.365-4.927c.381-3.565-1.238-5.1-4.813-4.72a10.02,10.02,0,0,0-2.841,1c-1.338.593-1.732,1.529-1.4,3.069a32.311,32.311,0,0,1,.02,12.714,38.476,38.476,0,0,1-5.385,13.434M135.467,95.969a51.461,51.461,0,0,0-4.034-5.506,29.85,29.85,0,0,0-5.652-4.716,4.613,4.613,0,0,0-5.237.441c-1.55,1.142-1.466,2.882-1.009,4.544.453,1.647,1.092,3.242,1.553,4.888a4.676,4.676,0,0,1,.236,2.374c-.673,2.331-3.394,2.7-5.163.8a110.642,110.642,0,0,0-7.728-8.206,60.845,60.845,0,0,0-9.684-7.041c-3.112-1.793-6.049-.234-6.39,3.355-.238,2.5.432,5.135.95,7.657.31,1.507.2,2.856-1.126,3.468a5,5,0,0,1-3.378.082c-5.469-1.839-10.977-3.257-16.822-2.831-5.818.424-9.365,5.393-7.308,10.287,1.5,3.566,8.2,8.029,12.091,8.031q15.308.01,30.615,0H109.1a3.514,3.514,0,0,0-.147-.746c-1.727-3.366-1.413-4.316,1.99-5.841q10.534-4.721,21.076-9.428c1.092-.489,2.169-1.012,3.451-1.612m15.477,72.1h46.488a13.011,13.011,0,0,0,2.1-.046c1.691-.279,2.985-1.072,3.3-2.933a3.739,3.739,0,0,0-2.127-4.265,7.46,7.46,0,0,0-2.782-.45q-46.869-.033-93.74-.018c-.446,0-.895-.02-1.338.021a3.939,3.939,0,0,0-3.59,4.694c.328,1.952,1.828,2.992,4.432,2.993q23.626.012,47.253,0M169,87.408l-53.747,24.057a3.169,3.169,0,0,0,3.621,2.168c2.156-.158,4.333-.037,6.5-.037,4.5,0,4.5,0,6.223-4.217.1-.236.2-.471.313-.7a2.783,2.783,0,0,1,3.642-1.533,2.722,2.722,0,0,1,1.741,3.543c-.236.895-.567,1.765-.889,2.748h8.652c-.435-1.009-.778-1.815-1.131-2.617-.383-.873-.834-1.721-1.153-2.617a2.958,2.958,0,0,1,1.491-3.868,2.808,2.808,0,0,1,3.8,1.543c1.155,2.462,2.18,4.984,3.359,7.71,3.146,0,6.58.023,10.013-.029a1.88,1.88,0,0,0,1.263-.641c5.972-7.442,7.949-15.879,6.3-25.513m8.214-40.331c-8.511,8.162-10.516,23.506-5.019,32.995,3.151-2.188,6.558-3.3,10.418-2.284s6.392,3.373,7.23,7.331l8.952-7.364q-10.566-15.136-21.177-30.328a2.132,2.132,0,0,0-.4-.35m22.432,21.7c6.545-7.1,14.879-7.743,21.366-4.354a16.542,16.542,0,0,1,7.337,7.54,17.256,17.256,0,0,1,.055,15.224c1.478.15,2.751.218,4,.427,1.031.172,1.461-.2,1.769-1.173a21.694,21.694,0,0,0,.541-11.853,22.146,22.146,0,0,0-24.185-17.141,21.282,21.282,0,0,0-13.845,7.072l2.961,4.258M93.769,77.123c-.1-.414-.191-.84-.3-1.261a17.01,17.01,0,0,1,19.9-21.1c3.979.813,7.868,2.072,11.883,3.151-.031-2.8-.029-2.925-2.141-4.374-7.824-5.369-16.017-5.886-24.286-1.28A21.829,21.829,0,0,0,87.944,74.386,50.315,50.315,0,0,0,89.281,79.8l4.488-2.676M217.3,89.087c2.646-.446,3.161-.74,4.682-2.753a10.808,10.808,0,0,0,1.732-10.29,10.532,10.532,0,0,0-8.4-7.495,10.8,10.8,0,0,0-11.159,4.184,2.319,2.319,0,0,0-.389,1.813c.1.35.983.736,1.463.678,5.587-.682,10.3,2.438,11.5,7.885a48.138,48.138,0,0,1,.569,5.978m-103.773-2.1c.77-1.317.46-2.32-.167-3.577a115.851,115.851,0,0,1-5.624-12.445,10.022,10.022,0,0,1,1.782-10.08,3.1,3.1,0,0,0,.3-.692,11.2,11.2,0,0,0-7.126,2.678,10.947,10.947,0,0,0-3.96,9.127c.151,3.556,1.583,6.35,5.217,7.6a5.774,5.774,0,0,1,1.613,1.01c2.638,2.09,5.257,4.2,7.967,6.377" fill="#fef3f3"/>
    <path id="Path_18" data-name="Path 18" d="M163.587,102.553c-.068,2.4-1.953,3.84-3.753,3.244-2.1-.694-4.166-1.5-6.2-2.374a2.634,2.634,0,0,1-1.646-3.415,2.608,2.608,0,0,1,3.4-1.971,44.622,44.622,0,0,1,6.711,2.585c.769.373,1.174,1.5,1.491,1.931" fill="#fef3f3"/>
    <path id="Path_19" data-name="Path 19" d="M181.1,72.409c-.826,0-1.654.038-2.478-.008a2.746,2.746,0,0,1-2.815-2.752,2.831,2.831,0,0,1,2.616-2.981,55.606,55.606,0,0,1,5.715-.169,2.852,2.852,0,0,1,2.853,2.755,2.943,2.943,0,0,1-2.653,2.989,27.093,27.093,0,0,1-3.238.025Z" fill="#fef3f3"/>
  </g>
</svg>
