<svg xmlns="http://www.w3.org/2000/svg" width="206.427" height="126" viewBox="0 0 206.427 126">
  <path id="Path_20" data-name="Path 20" d="M221.789,91.139c1.816,8.875-.223,16.84-4.881,24.206-5.892,9.318-14.479,15.571-24.049,20.628a110.765,110.765,0,0,1-24.724,9.164c0,2.707.016,5.44-.005,8.171-.019,2.407-.809,3.208-3.195,3.209q-31.257.012-62.513,0c-2.282,0-3.069-.766-3.112-3.085-.051-2.736-.012-5.472-.012-7.958-5.771-2-11.41-3.675-16.836-5.882-11.559-4.7-22.029-11.087-29.8-21.146A34.616,34.616,0,0,1,45,95.169c.169-3.915,2.068-6.052,5.68-7.069-.057-.2-.051-.434-.164-.541-5.7-5.354-8.539-12.018-9.53-19.713a51.311,51.311,0,0,0-2.633-9.658,6.508,6.508,0,0,0-3.512-4.3,2.9,2.9,0,0,1-.99-2.707,3.251,3.251,0,0,1,2.6-1.649,49.737,49.737,0,0,1,8.787,1.931c3.948,1.288,7.778,2.939,11.807,4.493,1.365-3.745,2.473-7.72,2.111-11.963a4.591,4.591,0,0,0-.687-1.886c-.7-1.166-.765-2.43.328-3.11a3.69,3.69,0,0,1,3.1-.364c7.487,4.207,13.356,9.958,16.525,18.14a3.767,3.767,0,0,0,1.331,1.676c-1.063-7.859.683-14.636,6.88-19.672,6.071-4.935,13.034-5.938,20.563-3.659.226-.374.435-.711.636-1.055,1.656-2.835,4.135-3.493,6.927-1.711,6.752,4.309,13.471,8.672,20.206,13.01.686.442,1.388.857,2.091,1.291,5.5-12.187,12.487-17.142,22.44-15.958,8.76,1.043,15.26,7.249,17.052,16.469.927-.681,1.771-1.316,2.63-1.929,7.9-5.635,16.146-5.418,23.561.739a2.647,2.647,0,0,0,3.208.434,20.811,20.811,0,0,1,13.864-1.069,46.276,46.276,0,0,1,9.144,3.5c11.278,6.025,14.443,18.036,7.839,29a31.2,31.2,0,0,1-15,13.3m-5.623,13.87h-2.789q-58.709,0-117.418,0a15.1,15.1,0,0,1-2.258-.055c-1.428-.216-2.455-.952-2.447-2.54s1.015-2.321,2.461-2.517a15.388,15.388,0,0,1,2.054-.036H217c1.525-5.061.4-7.12-3.8-7.121q-79.479-.014-158.957.014a8.425,8.425,0,0,0-2.994.53,2.1,2.1,0,0,0-1.107,1.476c-.145,1.615-.052,3.251-.052,5.1h24.6a13.672,13.672,0,0,1,1.644.022c1.437.174,2.484.827,2.541,2.431.061,1.719-1.017,2.433-2.531,2.661a11.128,11.128,0,0,1-1.643.035q-10.59,0-21.18.005c-.709,0-1.417.068-2.284.112A37.807,37.807,0,0,0,62.885,122.04c9.076,7.955,19.749,12.941,31.18,16.394a137.417,137.417,0,0,0,47.064,5.439c14.323-.726,28.239-3.3,41.546-8.734,10.052-4.106,19.288-9.5,26.524-17.817a32.454,32.454,0,0,0,6.967-12.313M163.821,82.117c2.108,1.123,3.652,1.978,5.224,2.777a25,25,0,0,0,12.2,2.9c10.278-.236,20.566-.049,30.848-.1a21.749,21.749,0,0,0,5.285-.578c8.528-2.2,13.9-7.99,16.968-15.92a13.693,13.693,0,0,0-5.429-16.449,40.6,40.6,0,0,0-9.853-4.38,16.844,16.844,0,0,0-13.117,1.562c-2.639,1.4-2.9,1.323-5.1-.883-3.126-3.129-6.756-5.2-11.341-4.763a15.981,15.981,0,0,0-9.4,4.668,5.568,5.568,0,0,1-4.4,1.573,80.088,80.088,0,0,0-12.481.364c-9.241,1.156-15.168,6.577-17.127,15.535-1.23,5.623-3.085,10.906-6.53,15.565-.036.048.071.2.083.236,3.94-1.344,7.8-3.017,11.836-3.926,3.394-.765,4.981-2.4,6.083-5.692,2.02-6.028,5.844-10.816,11.926-13.4,2.085-.884,3.527-.5,4.182,1.048.62,1.459-.086,2.7-2.116,3.552-5.071,2.122-7.7,6.292-9.673,11.252a9.2,9.2,0,0,0,1.576-.011c6.969-1.383,13.921-2.858,20.909-4.14a4.232,4.232,0,0,0,3.71-2.83A20.323,20.323,0,0,1,191.01,65.4a20.387,20.387,0,0,1,12.388-7.84c1.715-.348,3.13.358,3.372,1.792a2.41,2.41,0,0,1-2.019,3.043c-.465.112-.936.2-1.4.334-4.589,1.33-7.8,4.293-10.212,8.526a6.166,6.166,0,0,0,.99.068q11.91-1.514,23.818-3.044c2.008-.258,3.4.537,3.626,2.1.221,1.525-.948,2.724-2.963,2.96-5.029.588-10.067,1.114-15.092,1.736-2.982.37-5.949.876-9.29,1.377,3.448,2.79,6.682,4.833,10.862,4.864a2.327,2.327,0,0,1,2.541,2.6,2.293,2.293,0,0,1-2.534,2.383,16.083,16.083,0,0,1-3.864-.386c-4.832-1.128-8.612-4.019-12.167-7.322a3.683,3.683,0,0,0-2.642-.916c-3.719.525-7.416,1.229-11.1,1.964-3.652.728-7.279,1.569-11.5,2.489M79.724,63.6a26.826,26.826,0,0,1-3.887,15.53c-1.675,2.786-.9,5.62-1.465,8.44h29.173V63.6Zm32.445-26.933a29.448,29.448,0,0,0-3.121,15.509,42.9,42.9,0,0,0,9.632,24.419c3.023,3.754,6.765,6.936,10.251,10.3.566.547,1.433,1.579,2.281.1s1.753-2.9,2.658-4.4c-.557-.363-1.134-.725-1.7-1.109-6.858-4.666-12.567-10.348-15.909-18.1-1.769-4.1-2.677-8.343-1.617-12.787.816-3.419,3.594-4.562,6.557-2.738,2.563,1.578,5.065,3.255,7.6,4.883,4.653,2.993,9.307,5.981,14.021,9.011l2.239-3.915-32.89-21.18M43.576,56.182c1.1,5.27,2.056,10.483,3.279,15.634A22.4,22.4,0,0,0,57.54,86.493c1.363.8,3.076,1.006,5.146,1.643-1.836-7.291-4.1-13.418-10.1-17.366a2.392,2.392,0,0,1-.907-3.534,2.273,2.273,0,0,1,3.551-.689,31.406,31.406,0,0,1,4.8,4.131c3.975,4.448,6.053,9.842,7.353,15.591.12.532.72.955,1.1,1.429.314-.434.867-.846.908-1.3.656-7.392-1.222-13.96-6.49-19.377-5.411-5.563-12.214-8.62-19.324-10.835M140.467,69.7c.949-1.958.7-3.113-1.123-4.234-6.057-3.72-11.981-7.655-17.96-11.5-.609-.391-1.243-.741-1.915-1.14-1.654,7.964,7.747,21.02,17.8,25.528l1.044-2.014c-1.581-1.125-2.647-2.393-1.951-4.366.687-1.944,2.249-2.4,4.106-2.272m-36.03,81.773h58.557v-5.195a151.527,151.527,0,0,1-58.557-.005Zm42.105-98.7c.123-.3.22-.422.209-.533a10.507,10.507,0,0,1,7.451-10.8c4.675-1.419,8.845.308,12.168,4.892a1.993,1.993,0,0,0,1.229.795c1.189.109,2.395.037,3.827.037-.4-1.258-.607-2.191-.977-3.055a14.633,14.633,0,0,0-15.244-8.4c-6.988,1.16-12.731,6.894-13.212,13.241a1.512,1.512,0,0,0,.45,1.172c1.317.933,2.707,1.763,4.1,2.65M72.877,73.392c4.586-9.8.273-20.678-8.175-26.552-1.022,3.816-2.083,7.675-3.051,11.559a1.67,1.67,0,0,0,.619,1.331A31.8,31.8,0,0,1,72.877,73.392m15.5-15.26a12.376,12.376,0,0,1,3.695-11.954c3.545-3.34,7.84-3.821,12.516-2.779.263-1.266.492-2.364.837-4.027a70.114,70.114,0,0,0-7.779-.09c-8.429.833-14.517,8.992-12.771,16.9.544,2.468.608,2.505,3.5,1.95m16.166.262c-.2-2.987-.451-5.627-.51-8.271a1.731,1.731,0,0,0-1.548-1.951,7.35,7.35,0,0,0-9.06,9.027,1.86,1.86,0,0,0,1.335,1.143c3.265.1,6.534.053,9.784.053m16.466,29.219L108.977,71.742V87.613Zm42.03.02c-1.743-1.23-3.118-2.212-4.506-3.173-.38-.263-.883-.736-1.2-.647-3.76,1.069-7.5,2.224-11.239,3.357l.12.463ZM161.154,47.79a5.333,5.333,0,0,0-6.113-1.244,4.982,4.982,0,0,0-3.219,4.834l9.332-3.591" transform="translate(-33.778 -30.522)" fill="#f8932d"/>
</svg>
