<svg xmlns="http://www.w3.org/2000/svg" width="199.612" height="198.032" viewBox="0 0 199.612 198.032">
  <path id="Path_64" data-name="Path 64" d="M223.525,73.057c-1.089,3.082-2.178,6.162-3.253,9.206a39.253,39.253,0,0,1,2.492,5.955A7.922,7.922,0,0,1,221.1,95a1.677,1.677,0,0,0-.151,2.258,6.033,6.033,0,0,1,.342,5.6,2.859,2.859,0,0,0,.137,2.118c3.205,5.781,1.914,15.052-2.919,18.522-1.846,1.325-4.192,1.924-6.53,2.951a17.4,17.4,0,0,1-1.14,10.435c-3.117,7.016-8.6,10.812-15.941,11.907a38.976,38.976,0,0,1-5.713.287q-52.672.025-105.34.01c-6.228,0-11.85-1.657-16.356-6.324a19.6,19.6,0,0,1-4.974-9.394,2.632,2.632,0,0,1,1.712-3.13,2.5,2.5,0,0,1,3.149,1.585,35.992,35.992,0,0,0,2.471,5.586c2.561,3.913,6.4,5.784,10.919,6.242a28.371,28.371,0,0,0,2.863.086q53.683.007,107.364.024c5.014.005,9.455-1.281,12.829-5.241a12.728,12.728,0,0,0,2.912-11.5c-.2-.913-.552-1.3-1.452-1.213-.446.044-.9.007-1.347.007q-70.031,0-140.061.028c-3.926,0-7.3-.979-9.875-4.148-2.317-2.85-2.755-6.19-2.393-9.714a2.253,2.253,0,0,1,2.417-2.148,2.418,2.418,0,0,1,2.546,2.253,17.625,17.625,0,0,1,.077,2.577,5.937,5.937,0,0,0,5.618,5.929c.392.024.786.013,1.18.013q73.821,0,147.644,0c3.481,0,5.926-1.375,6.376-4.347a36.028,36.028,0,0,0-.2-7.954c-.058-.78-.6-1.423-1.7-1a20.333,20.333,0,0,1-12.255.406,5.414,5.414,0,0,0-6.26,2.285c-4.858,6.408-13.212,7.841-19.425,3.121-2.569-1.951-3.415-1.753-5.865.855-4.722,5.029-11.168,6.091-17.008,2.738a25.12,25.12,0,0,1-2.694-2.052c-1.83-1.412-2.806-1.259-4.648.132a26.11,26.11,0,0,1-6.187,3.955c-4.617,1.726-8.928.542-12.742-2.565-.35-.285-.665-.617-.995-.927-2.312-2.169-3.071-2.047-5.678-.174a19.561,19.561,0,0,1-5.894,3.086c-4.67,1.309-8.844-.095-12.426-3.366-.459-.419-.85-.917-1.283-1.366-1.874-1.937-2.963-2.1-5.133-.482a13.447,13.447,0,0,1-8.934,2.887,13.633,13.633,0,0,1-10.637-5.76,5.491,5.491,0,0,0-6.4-2.36,20.242,20.242,0,0,1-13.51-.91,7.855,7.855,0,0,1-4.419-4,6.346,6.346,0,0,1,.387-5.761,1.78,1.78,0,0,0,.119-1.478c-3.309-4.625-2.727-8.953.823-13.108.033-.039.038-.106-.281-.043-.988-2.885-2.305-5.7-2.9-8.666-1.455-7.261,1.093-13.335,6.241-18.271A52.525,52.525,0,0,1,88,41.019a56.447,56.447,0,0,1,26.031,2.657,5.7,5.7,0,0,0,3.529.007,52.792,52.792,0,0,1,24.193-2.856c4.959.594,9.793,2.264,14.7,3.392a4.37,4.37,0,0,0,2.393.022,55.4,55.4,0,0,1,25.449-3.5c13.114,1.269,24.587,6.369,33.883,16.087A18.687,18.687,0,0,1,223.23,67.1a4.1,4.1,0,0,0,.3.792ZM108.4,47.51a6.8,6.8,0,0,0-.8-.286,51.348,51.348,0,0,0-18.374-1.077,47.592,47.592,0,0,0-28.089,13.1c-4.623,4.421-6.255,9.766-4.18,16.062,2.232,6.776,9.054,11.512,16.939,11.518q63.353.047,126.707,0a18.517,18.517,0,0,0,9.77-2.743c8.236-5.011,11.4-16.455,3.406-24.391a47.5,47.5,0,0,0-30.92-13.814,48.466,48.466,0,0,0-27.323,5.7c-5.593,3.061-11.09,6.354-13.9,12.7a2.388,2.388,0,0,1-3.365,1.32,2.513,2.513,0,0,1-1.189-3.49,32.58,32.58,0,0,1,4.72-6.993c2.682-2.688,5.884-4.833,9.206-7.484-3.73-.616-7.228-1.472-10.765-1.726A49,49,0,0,0,113.2,51.318c-6.061,3.224-11.754,6.966-15.144,13.409a2.357,2.357,0,0,1-3.427,1.1A2.453,2.453,0,0,1,93.621,62.3a37.285,37.285,0,0,1,5.22-7.078c2.915-2.809,6.292-5.118,9.556-7.708m57.339,44.881c-.58.96-1.043,1.881-1.645,2.7-3.062,4.145-7.453,6.177-12.134,7.548a51.078,51.078,0,0,1-29.386.01c-5.751-1.7-11.008-4.281-13.611-9.839a49.27,49.27,0,0,1-4.647,5.169c-3.889,3.308-8.626,4.821-13.515,5.7-3.5.634-7.073.9-10.579,1.32,3.23,5.645,9.381,7.63,14.367,3.378a8.1,8.1,0,0,1,3.14-1.531c3.676-.968,6.317.838,8.709,3.478,3.522,3.887,8.136,4.126,12.147.791,4.647-3.864,8.037-3.762,12.479.377,3.936,3.668,8.393,3.681,12.321.034,4.495-4.173,7.806-4.291,12.478-.446,4.139,3.406,8.748,3.213,12.25-.862s8.272-4.934,12.606-1.317c4.021,3.356,10.434,2.007,13.594-4.2-.781,0-1.508.028-2.232,0a45.426,45.426,0,0,1-17-3.683c-3.983-1.812-7.434-4.258-9.34-8.622M58.21,86.241c-2.18,2.663-2.05,4.721.345,6.948a21.144,21.144,0,0,0,9.08,4.636,48.519,48.519,0,0,0,20.838,1.019c4.61-.743,9.1-2,12.876-5.033a18.8,18.8,0,0,0,1.63-1.74c-9.421,0-18.4-.09-27.37.031-6.463.087-12.31-1.482-17.4-5.86m158.047-.013c-5.182,4.511-11.22,5.991-17.849,5.877-8.3-.143-16.612-.034-24.919-.034H171.4a18.039,18.039,0,0,0,8.968,5.424,47.33,47.33,0,0,0,22.288,1.261c4.777-.8,9.422-2.135,13.187-5.524,2.447-2.2,2.586-4.227.411-7M114.643,92.16a13.569,13.569,0,0,0,5.837,4.226,40.27,40.27,0,0,0,16.089,3.105A41.386,41.386,0,0,0,154,96.373a12.987,12.987,0,0,0,5.786-4.213ZM216.35,99.616l-7.968,3.437a12.851,12.851,0,0,0,7.172-1.439c.77-.409,1.427-.939.8-2M57.773,99.475c.267.772.292,1.519.643,1.748a11.413,11.413,0,0,0,7.568,1.792l-8.211-3.54" transform="matrix(0.719, 0.695, -0.695, 0.719, 66.93, -64.484)" fill="#fef3f3" opacity="0.2"/>
</svg>
